<svg width="24" height="24" viewBox="0 0 24 24" fill="none" xmlns="http://www.w3.org/2000/svg">
<path d="M11.9998 23.1428C14.9551 23.1428 17.7893 21.9689 19.879 19.8792C21.9687 17.7895 23.1426 14.9552 23.1426 12C23.1426 9.0447 21.9687 6.21048 19.879 4.12078C17.7893 2.03109 14.9551 0.857117 11.9998 0.857117M11.9998 23.1428C9.04452 23.1428 6.21029 21.9689 4.1206 19.8792C2.03091 17.7895 0.856934 14.9552 0.856934 12C0.856934 9.0447 2.03091 6.21048 4.1206 4.12078C6.21029 2.03109 9.04452 0.857117 11.9998 0.857117M11.9998 23.1428V0.857117" stroke="white" stroke-linecap="round" stroke-linejoin="round"/>
<path d="M3.59961 19.32C4.85529 18.555 5.89308 17.4799 6.6132 16.1979C7.33332 14.916 7.71155 13.4703 7.71155 12C7.71155 10.5296 7.33332 9.084 6.6132 7.80206C5.89308 6.52012 4.85529 5.44498 3.59961 4.67999M20.3996 4.67999C19.1439 5.44498 18.1061 6.52012 17.386 7.80206C16.6659 9.084 16.2877 10.5296 16.2877 12C16.2877 13.4703 16.6659 14.916 17.386 16.1979C18.1061 17.4799 19.1439 18.555 20.3996 19.32" stroke="white" stroke-linecap="round" stroke-linejoin="round"/>
</svg>
