<svg width="24" height="24" viewBox="0 0 24 24" fill="none" xmlns="http://www.w3.org/2000/svg">
<path d="M11.6195 20.582L2.56354 4.924C2.52183 4.85226 2.49975 4.7708 2.49951 4.68782C2.49928 4.60484 2.5209 4.52326 2.56221 4.45129C2.60352 4.37932 2.66305 4.3195 2.73482 4.27784C2.80659 4.23619 2.88806 4.21417 2.97104 4.214L21.0275 4.1825C21.1104 4.18243 21.1919 4.20418 21.2637 4.24555C21.3356 4.28693 21.3953 4.34647 21.4368 4.41821C21.4783 4.48995 21.5003 4.57135 21.5004 4.65425C21.5005 4.73715 21.4789 4.81863 21.4375 4.8905L12.4365 20.5805C12.3954 20.6523 12.336 20.7121 12.2644 20.7536C12.1928 20.7952 12.1115 20.8172 12.0287 20.8174C11.9459 20.8175 11.8646 20.7958 11.7928 20.7545C11.7211 20.7132 11.661 20.6537 11.6195 20.582Z" stroke="white" stroke-linecap="round" stroke-linejoin="round"/>
<path d="M11.964 7.25849L10.2315 4.23499M9.81998 11.0775L8.00098 14.231M14.187 11.039H17.767M14.1845 11.037L9.81348 11.0785L11.9635 7.26249L14.1845 11.037Z" stroke="white" stroke-linecap="round" stroke-linejoin="round"/>
</svg>
