<svg width="24" height="24" viewBox="0 0 24 24" fill="none" xmlns="http://www.w3.org/2000/svg">
<path d="M14.3248 6.74247C14.2423 6.74247 14.1598 6.71997 14.0848 6.65997L14.0825 6.65847C13.8142 6.48586 13.4941 6.41214 13.1773 6.44997C13.074 6.46139 12.9703 6.43155 12.8888 6.36695C12.8074 6.30234 12.7547 6.20819 12.7423 6.10497C12.736 6.0537 12.74 6.00169 12.754 5.95198C12.768 5.90226 12.7918 5.85581 12.8238 5.81535C12.8559 5.77488 12.8958 5.74118 12.941 5.71623C12.9862 5.69127 13.0359 5.67555 13.0873 5.66997C13.9498 5.56497 14.5423 6.01497 14.5648 6.03747C14.7373 6.17247 14.7673 6.41997 14.6398 6.59247C14.5648 6.68997 14.4448 6.74247 14.3248 6.74247ZM9.40479 6.74247C9.32278 6.74223 9.24289 6.71638 9.17627 6.66854C9.10966 6.6207 9.05964 6.55325 9.03321 6.47561C9.00678 6.39798 9.00526 6.31402 9.02884 6.23547C9.05243 6.15693 9.09996 6.0877 9.16479 6.03747C9.18729 6.01497 9.78729 5.57247 10.6423 5.66997C10.8598 5.69247 11.0098 5.89497 10.9873 6.10497C10.9648 6.32247 10.7623 6.47997 10.5523 6.44997C10.2377 6.41351 9.92013 6.48576 9.65229 6.65472L9.64479 6.65997C9.56979 6.71247 9.48729 6.74247 9.40479 6.74247ZM11.5948 7.79247L11.2273 8.99997C11.1523 9.24747 11.3323 9.49497 11.5948 9.49497H12.1423C12.3973 9.49497 12.5848 9.24747 12.5098 8.99997L12.1348 7.79997C12.0523 7.52997 11.6773 7.52997 11.5948 7.79247ZM10.8448 9.89997C11.1523 10.0575 11.5048 10.1475 11.8873 10.1475C12.2698 10.1475 12.6298 10.0575 12.9148 9.89997C13.0198 9.83997 13.1248 9.95997 13.0648 10.0575C12.9366 10.2551 12.7611 10.4176 12.5541 10.5301C12.3472 10.6425 12.1153 10.7015 11.8798 10.7015C11.6442 10.7015 11.4124 10.6425 11.2054 10.5301C10.9985 10.4176 10.8229 10.2551 10.6948 10.0575C10.6348 9.95997 10.7398 9.84747 10.8448 9.89997ZM10.1473 7.01997C9.67479 7.01997 9.28479 7.34247 9.17229 7.77747C9.14229 7.89747 9.23979 8.01747 9.36729 8.01747H9.67329C9.64801 7.92195 9.64502 7.82191 9.66454 7.72505C9.68406 7.62819 9.72557 7.53711 9.78587 7.45884C9.84617 7.38057 9.92364 7.3172 10.0123 7.27361C10.101 7.23003 10.1985 7.2074 10.2973 7.20747C10.6498 7.20747 10.9348 7.49247 10.9348 7.85247C10.9347 7.90809 10.9279 7.96349 10.9145 8.01747H10.9648C11.0698 8.01747 11.1523 7.92747 11.1298 7.82247C11.0398 7.36497 10.6348 7.01997 10.1473 7.01997ZM13.5823 7.01997C14.0548 7.01997 14.4448 7.34247 14.5573 7.77747C14.5873 7.90497 14.4898 8.02497 14.3623 8.02497H14.0548C14.0814 7.92909 14.0855 7.82835 14.0667 7.73064C14.0479 7.63292 14.0067 7.54088 13.9464 7.46171C13.8862 7.38255 13.8084 7.3184 13.7192 7.27429C13.63 7.23019 13.5318 7.20732 13.4323 7.20747C13.0798 7.20747 12.7948 7.49247 12.7948 7.85247C12.7948 7.91247 12.8023 7.97247 12.8173 8.02497H12.7648C12.6598 8.02497 12.5773 7.93497 12.5998 7.82997C12.6898 7.36497 13.0948 7.01997 13.5823 7.01997Z" fill="white"/>
<path d="M10.2975 7.485C10.5 7.485 10.665 7.65 10.665 7.8525C10.665 7.9125 10.65 7.965 10.62 8.025H9.975C9.94417 7.9684 9.92889 7.90464 9.93074 7.84021C9.93258 7.77578 9.95148 7.713 9.9855 7.65825C9.99417 7.67178 10.0056 7.6833 10.0191 7.69202C10.0326 7.70075 10.0478 7.70648 10.0637 7.70884C10.0796 7.71119 10.0958 7.71011 10.1113 7.70567C10.1267 7.70123 10.1411 7.69353 10.1533 7.6831C10.1655 7.67266 10.1753 7.65973 10.1821 7.64517C10.1889 7.63061 10.1925 7.61476 10.1927 7.59869C10.1929 7.58262 10.1896 7.56671 10.1831 7.55201C10.1766 7.53732 10.167 7.52419 10.155 7.5135C10.2001 7.49455 10.2486 7.48486 10.2975 7.485ZM13.44 7.485C13.3948 7.48504 13.3501 7.49343 13.308 7.50975C13.3209 7.52043 13.3313 7.53387 13.3384 7.54908C13.3455 7.5643 13.3491 7.5809 13.3489 7.59768C13.3487 7.61446 13.3448 7.63099 13.3374 7.64606C13.3301 7.66113 13.3194 7.67435 13.3062 7.68477C13.2931 7.69518 13.2777 7.70252 13.2614 7.70624C13.245 7.70996 13.228 7.70998 13.2117 7.70629C13.1953 7.7026 13.18 7.69529 13.1668 7.6849C13.1536 7.67451 13.1429 7.66131 13.1355 7.64625C13.0981 7.70169 13.0767 7.76632 13.0735 7.83311C13.0703 7.89989 13.0855 7.96627 13.1175 8.025H13.7625C13.7925 7.9725 13.8075 7.9125 13.8075 7.8525C13.8075 7.75504 13.7688 7.66156 13.6999 7.59264C13.6309 7.52372 13.5375 7.485 13.44 7.485ZM11.5275 4.5225V2.7225C11.5275 2.535 11.6775 2.3775 11.8725 2.3775C12.06 2.3775 12.2175 2.5275 12.2175 2.7225V4.5225H11.5275ZM9.24 4.5225H9.9225L9.255 2.6025C9.23178 2.53939 9.18995 2.48481 9.13505 2.44597C9.08014 2.40714 9.01474 2.38588 8.9475 2.385C8.7225 2.385 8.565 2.6025 8.64 2.8125L9.24 4.5225ZM13.8075 4.5225H14.49L15.09 2.8125C15.165 2.6025 15.0075 2.385 14.7825 2.385C14.6475 2.385 14.52 2.475 14.475 2.6025L13.8075 4.5225Z" fill="white"/>
<path d="M7.8075 0.75C5.87025 0.75 4.908 3.0885 6.27225 4.45275L6.6255 4.806L6.63 5.241V5.265C6.63 5.3805 6.6495 5.493 6.6855 5.59875L6.91725 6.80325C6.64816 7.14214 6.50195 7.56227 6.5025 7.995C6.5025 8.58825 6.77175 9.11775 7.1925 9.4695L7.2795 10.6162C7.2795 10.6237 7.281 10.6305 7.28175 10.6372C7.32825 11.0857 7.46625 11.5013 7.677 11.8695L7.07025 12.3143C6.7935 12.495 6.51975 12.6982 6.267 12.9067H6.26625C5.24381 13.7491 4.42065 14.8075 3.85591 16.0058C3.29116 17.2042 2.99886 18.5127 3 19.8375V22.5C3 22.6989 3.07902 22.8897 3.21967 23.0303C3.36033 23.171 3.55109 23.25 3.75 23.25H20.25C20.3066 23.2499 20.3629 23.2434 20.418 23.2305C20.7702 23.2033 21.0991 23.0442 21.3391 22.7851C21.5791 22.5259 21.7124 22.1857 21.7125 21.8325V18.09C21.7125 17.3265 21.1388 16.695 20.4 16.602V15.753L20.4008 15.7515L20.4015 15.75C20.4066 15.7408 20.4135 15.7326 20.4218 15.726C20.7495 15.4958 21.003 15.1808 21.1665 14.8118C21.3795 14.3413 21.4905 13.831 21.492 13.3146C21.4936 12.7981 21.3857 12.2872 21.1755 11.8155C20.9978 11.4185 20.7088 11.0816 20.3435 10.8455C19.9783 10.6094 19.5524 10.4841 19.1175 10.485C18.6832 10.4842 18.2579 10.6091 17.8929 10.8446C17.528 11.0802 17.2391 11.4163 17.061 11.8125C16.9887 11.9719 16.9281 12.1363 16.8795 12.3045L16.7925 12.2482L16.113 11.7563C16.2964 11.4009 16.4109 11.0141 16.4505 10.6162L16.5368 9.4695C16.7531 9.28956 16.9272 9.06415 17.0466 8.8093C17.166 8.55445 17.2278 8.27643 17.2275 7.995C17.2282 7.55672 17.0783 7.1315 16.803 6.7905L16.9988 5.72325C17.0693 5.5845 17.1075 5.42775 17.1075 5.265V4.803L17.4578 4.45275C18.822 3.0885 17.859 0.75 15.9225 0.75H7.8075ZM20.2125 21.7358C20.1747 21.7376 20.1371 21.7424 20.1 21.75H17.6565C17.6717 21.7147 17.6957 21.684 17.7263 21.6608C17.7747 21.6253 17.814 21.5787 17.8407 21.5249C17.8674 21.4711 17.8808 21.4117 17.8798 21.3517C17.8788 21.2916 17.8633 21.2327 17.8348 21.1798C17.8062 21.127 17.7654 21.0818 17.7158 21.048C17.6708 21.0172 17.625 20.9497 17.625 20.8492C17.625 20.757 17.6715 20.6813 17.7225 20.6453C17.7717 20.6101 17.8118 20.5636 17.8391 20.5096C17.8665 20.4557 17.8804 20.3959 17.8797 20.3354C17.8789 20.2749 17.8636 20.2155 17.8349 20.1622C17.8062 20.109 17.7651 20.0634 17.715 20.0295C17.67 19.9987 17.625 19.9312 17.625 19.8307C17.625 19.7385 17.6715 19.6628 17.7225 19.6268C17.7703 19.5927 17.8094 19.5479 17.8367 19.496C17.864 19.4441 17.8788 19.3865 17.8798 19.3279C17.8808 19.2693 17.8681 19.2112 17.8426 19.1584C17.8171 19.1055 17.7796 19.0594 17.733 19.0237C17.7 18.9967 17.6737 18.9624 17.6563 18.9235C17.6388 18.8846 17.6307 18.8421 17.6325 18.7995V18.7958C17.6355 18.657 17.745 18.5707 17.835 18.5707C17.862 18.5707 17.8875 18.5678 17.9138 18.5625H20.2125V19.2V21.7358ZM17.0115 21.3638C16.9452 21.483 16.9034 21.6143 16.8885 21.75H4.5V19.8375C4.49851 18.5898 4.80955 17.3617 5.40473 16.2651C5.9999 15.1686 6.86026 14.2386 7.90725 13.56L7.94175 13.5353L8.01 13.485H10.8653C10.6066 13.6652 10.3954 13.9053 10.2495 14.1847C10.1036 14.4642 10.0275 14.7748 10.0275 15.09V16.3425C10.5458 16.3421 11.0428 16.1364 11.4096 15.7703C11.7765 15.4043 11.9834 14.9078 11.985 14.3895C11.9866 14.9078 12.1935 15.4043 12.5604 15.7703C12.9273 16.1364 13.4242 16.3421 13.9425 16.3425V15.09C13.9425 14.4263 13.611 13.839 13.1048 13.485H15.9428C15.9518 13.491 15.9608 13.4977 15.9705 13.503C16.341 13.7377 16.6905 14.004 17.013 14.298C17.1068 14.3827 17.217 14.4405 17.3333 14.4705C17.3558 14.5268 17.3783 14.5815 17.4038 14.6362V14.6378C17.5463 14.9468 17.7698 15.2025 18.024 15.3915L18.0285 15.3945L18.033 15.3983C18.0848 15.4333 18.1273 15.4804 18.1568 15.5356C18.1864 15.5907 18.202 15.6522 18.2025 15.7147V17.8125H17.835C17.801 17.8124 17.7672 17.817 17.7345 17.826C17.2583 17.8785 16.8945 18.2925 16.8825 18.7762C16.8763 18.9645 16.922 19.1507 17.0145 19.3148C16.9233 19.4704 16.8748 19.6474 16.8739 19.8278C16.8729 20.0082 16.9196 20.1857 17.0093 20.3422C16.9203 20.4978 16.8736 20.674 16.8738 20.8532C16.8741 21.0324 16.9221 21.2084 17.0115 21.3638ZM14.58 11.3677C14.5637 11.3869 14.5469 11.4056 14.5298 11.424C14.4915 11.4654 14.458 11.5109 14.43 11.5598C14.2547 11.7616 14.0381 11.9235 13.7949 12.0344C13.5516 12.1453 13.2874 12.2026 13.02 12.2025H10.71C10.4648 12.2024 10.222 12.154 9.99554 12.0601C9.76905 11.9661 9.56329 11.8285 9.39 11.655C9.35463 11.5923 9.31043 11.5349 9.25875 11.4847C9.21975 11.4472 9.18375 11.4083 9.1485 11.367C8.94225 11.067 8.805 10.6995 8.766 10.2817L8.4885 6.07725C8.47637 5.89737 8.47837 5.71607 8.4945 5.5365H15.2355C15.2505 5.7135 15.2535 5.8935 15.2408 6.0765L14.9633 10.2802C14.9297 10.6694 14.7978 11.0436 14.58 11.3677ZM15.6075 4.78725H8.1255L8.1225 4.485C8.12049 4.28871 8.04159 4.10103 7.90275 3.96225L7.33275 3.39225C6.912 2.9715 7.20975 2.25 7.8075 2.25H15.9225C16.5203 2.25 16.818 2.9715 16.3973 3.39225L15.8273 3.96225C15.6866 4.10287 15.6075 4.2936 15.6075 4.4925V4.78725ZM19.1175 12.1147C19.41 12.1147 19.683 12.2888 19.8113 12.564C19.9153 12.8 19.9689 13.0551 19.9686 13.313C19.9684 13.5709 19.9142 13.826 19.8098 14.0618C19.6898 14.3318 19.4198 14.5095 19.1175 14.5095C18.8145 14.5095 18.5445 14.3325 18.4253 14.0625C18.3206 13.8262 18.2665 13.5706 18.2665 13.3121C18.2665 13.0537 18.3206 12.7981 18.4253 12.5618V12.5602C18.5453 12.291 18.8153 12.1147 19.1175 12.1147Z" fill="white"/>
</svg>
