<svg width="24" height="24" viewBox="0 0 24 24" fill="none" xmlns="http://www.w3.org/2000/svg">
<path d="M7.2699 10.0095C6.4259 8.972 5.6339 8.749 4.8929 9.341C3.7814 10.229 3.4624 13.325 4.3564 16.0545C5.2509 18.784 6.9899 22.501 10.5009 22.501C14.0114 22.501 14.8419 18.761 16.2739 16.5C17.7064 14.239 18.4639 12.0575 17.0604 9.341" stroke="white" stroke-linecap="round" stroke-linejoin="round"/>
<path d="M5.50004 9.01847C4.83904 8.00856 4.17237 7.00238 3.50004 5.99997C2.77704 4.92747 4.62554 3.54097 5.50004 4.48397C6.08304 5.11297 6.85754 6.03897 7.82354 7.26247" stroke="white" stroke-linecap="round"/>
<path d="M7.51189 12.82C7.26939 9.78799 7.46689 7.814 8.10289 6.8975C9.05789 5.5225 10.8314 5.0015 12.5019 5.0015C13.4959 5.0015 14.4044 5.425 15.2259 6.272" stroke="white" stroke-linecap="round" stroke-linejoin="round"/>
<path d="M20.5001 6.30649C20.7931 7.32449 20.3151 8.25499 18.8421 8.46549C17.3696 8.67599 16.2656 9.41649 15.4696 10.0395C14.6731 10.6625 13.2496 12.5525 12.9681 13.501C12.6871 14.45 11.0801 13.5775 10.6486 13.1985C10.2171 12.82 9.79262 11.9905 10.6486 11.123C11.5046 10.2555 11.3191 10.0825 11.3191 9.20299C11.3191 8.32299 16.0001 5.41299 18.6366 5.14699C19.2226 5.11299 20.2076 5.28799 20.5001 6.30649Z" stroke="white"/>
<path d="M11.5039 1.99999V4.63149M10.1534 5.35899C8.64442 3.46249 7.42792 2.40399 6.50342 2.18399M8.50192 3.51449L8.99692 1.48099M17.8064 5.35899C17.6454 5.91099 17.6454 6.42899 17.8064 6.91199C17.9674 7.39549 18.3129 7.91299 18.8419 8.46549" stroke="white" stroke-linecap="round"/>
</svg>
