<svg width="24" height="24" viewBox="0 0 24 24" fill="none" xmlns="http://www.w3.org/2000/svg">
<path d="M19.729 3.91701L19.779 4.07701L20.331 5.99901C20.381 6.17324 20.3662 6.35968 20.2894 6.52385C20.2125 6.68802 20.0788 6.8188 19.913 6.89201L19.817 6.92701L9.09 10.002H20.25C20.4314 10.0023 20.6065 10.0683 20.7429 10.1879C20.8793 10.3074 20.9678 10.4723 20.992 10.652L20.999 10.752V19.251C20.999 19.9513 20.7319 20.6252 20.2521 21.1353C19.7723 21.6454 19.116 21.9532 18.417 21.996L18.249 22.001H5.75C5.04971 22.001 4.37579 21.7339 3.8657 21.2541C3.35561 20.7743 3.04778 20.118 3.005 19.419L3 19.25V10.858L2.478 9.03701C2.28508 8.36382 2.35624 7.6424 2.67698 7.01989C2.99771 6.39737 3.54385 5.92067 4.204 5.68701L4.364 5.63501L16.378 2.19001C17.0512 1.99709 17.7726 2.06825 18.3951 2.38898C19.0176 2.70972 19.4943 3.25586 19.728 3.91601M19.498 11.501H4.5V19.25C4.5 19.854 4.929 20.358 5.498 20.474L5.622 20.494L5.75 20.5H18.25C18.5593 20.4999 18.8576 20.3851 19.0871 20.1779C19.3167 19.9707 19.4613 19.6857 19.493 19.378L19.499 19.25L19.498 11.501ZM6.272 6.64901L4.776 7.07901C4.47888 7.16426 4.22389 7.35658 4.06026 7.61883C3.89663 7.88108 3.83597 8.19465 3.89 8.49901L3.92 8.62401L4.264 9.82501L4.559 9.74001L6.272 6.64901ZM11.028 5.28601L8.311 6.06501L6.597 9.15501L9.315 8.37701L11.028 5.28601ZM15.786 3.92101L13.068 4.70101L11.355 7.79101L14.071 7.01301L15.786 3.92101ZM17.633 3.68801L16.112 6.42801L18.681 5.69101L18.337 4.49101C18.2864 4.31341 18.197 4.14926 18.0752 4.0104C17.9535 3.87154 17.8024 3.76143 17.633 3.68801Z" fill="white"/>
</svg>
