<svg width="24" height="24" viewBox="0 0 24 24" fill="none" xmlns="http://www.w3.org/2000/svg">
<path d="M2.975 4C2.71841 4.00634 2.47408 4.1111 2.29259 4.29259C2.1111 4.47408 2.00634 4.71841 2 4.975V18.625C2 18.8902 2.10536 19.1446 2.29289 19.3321C2.48043 19.5196 2.73478 19.625 3 19.625H20.55C20.8152 19.625 21.0696 19.5196 21.2571 19.3321C21.4446 19.1446 21.55 18.8902 21.55 18.625V4.975C21.5435 4.71414 21.4352 4.46616 21.2484 4.284C21.0616 4.10184 20.8109 3.99992 20.55 4H2.975ZM4.82 5.3H5.75C5.95819 5.3 6.15786 5.38271 6.30508 5.52992C6.4523 5.67714 6.535 5.87681 6.535 6.085V7.015C6.535 7.2232 6.4523 7.42286 6.30508 7.57008C6.15786 7.71729 5.95819 7.8 5.75 7.8H4.82C4.61181 7.8 4.41214 7.71729 4.26492 7.57008C4.11771 7.42286 4.035 7.2232 4.035 7.015V6.105C4.03233 6.00024 4.05066 5.89601 4.08891 5.79845C4.12717 5.70089 4.18457 5.61197 4.25773 5.53695C4.33089 5.46192 4.41833 5.4023 4.5149 5.36161C4.61147 5.32091 4.71521 5.29997 4.82 5.3ZM17.75 5.3H18.68C18.8882 5.3 19.0879 5.38271 19.2351 5.52992C19.3823 5.67714 19.465 5.87681 19.465 6.085V7.015C19.465 7.2232 19.3823 7.42286 19.2351 7.57008C19.0879 7.71729 18.8882 7.8 18.68 7.8H17.75C17.5418 7.8 17.3421 7.71729 17.1949 7.57008C17.0477 7.42286 16.965 7.2232 16.965 7.015V6.105C16.9623 6.00024 16.9807 5.89601 17.0189 5.79845C17.0572 5.70089 17.1146 5.61197 17.1877 5.53695C17.2609 5.46192 17.3483 5.4023 17.4449 5.36161C17.5415 5.32091 17.6452 5.29997 17.75 5.3ZM4.82 8.8H5.75C5.95819 8.8 6.15786 8.88271 6.30508 9.02992C6.4523 9.17714 6.535 9.37681 6.535 9.585V10.515C6.535 10.7232 6.4523 10.9229 6.30508 11.0701C6.15786 11.2173 5.95819 11.3 5.75 11.3H4.82C4.61181 11.3 4.41214 11.2173 4.26492 11.0701C4.11771 10.9229 4.035 10.7232 4.035 10.515V9.59C4.03434 9.48649 4.05416 9.38388 4.09331 9.28806C4.13247 9.19224 4.19019 9.10511 4.26315 9.03169C4.33611 8.95826 4.42287 8.89999 4.51843 8.86023C4.614 8.82047 4.71649 8.8 4.82 8.8ZM17.75 8.8H18.68C18.8882 8.8 19.0879 8.88271 19.2351 9.02992C19.3823 9.17714 19.465 9.37681 19.465 9.585V10.515C19.465 10.7232 19.3823 10.9229 19.2351 11.0701C19.0879 11.2173 18.8882 11.3 18.68 11.3H17.75C17.5418 11.3 17.3421 11.2173 17.1949 11.0701C17.0477 10.9229 16.965 10.7232 16.965 10.515V9.59C16.9643 9.48649 16.9842 9.38388 17.0233 9.28806C17.0625 9.19224 17.1202 9.10511 17.1931 9.03169C17.2661 8.95826 17.3529 8.89999 17.4484 8.86023C17.544 8.82047 17.6465 8.8 17.75 8.8ZM4.82 12.3H5.75C5.95819 12.3 6.15786 12.3827 6.30508 12.5299C6.4523 12.6771 6.535 12.8768 6.535 13.085V14.01C6.53566 14.1135 6.51584 14.2161 6.47669 14.3119C6.43753 14.4078 6.37981 14.4949 6.30685 14.5683C6.23389 14.6417 6.14713 14.7 6.05157 14.7398C5.956 14.7795 5.85351 14.8 5.75 14.8H4.82C4.71649 14.8 4.614 14.7795 4.51843 14.7398C4.42287 14.7 4.33611 14.6417 4.26315 14.5683C4.19019 14.4949 4.13247 14.4078 4.09331 14.3119C4.05416 14.2161 4.03434 14.1135 4.035 14.01V13.08C4.03632 12.8727 4.11961 12.6743 4.26668 12.5282C4.41375 12.382 4.61267 12.3 4.82 12.3ZM17.75 12.3H18.68C18.8882 12.3 19.0879 12.3827 19.2351 12.5299C19.3823 12.6771 19.465 12.8768 19.465 13.085V14.01C19.4657 14.1135 19.4458 14.2161 19.4067 14.3119C19.3675 14.4078 19.3098 14.4949 19.2369 14.5683C19.1639 14.6417 19.0771 14.7 18.9816 14.7398C18.886 14.7795 18.7835 14.8 18.68 14.8H17.75C17.6465 14.8 17.544 14.7795 17.4484 14.7398C17.3529 14.7 17.2661 14.6417 17.1931 14.5683C17.1202 14.4949 17.0625 14.4078 17.0233 14.3119C16.9842 14.2161 16.9643 14.1135 16.965 14.01V13.08C16.9663 12.8727 17.0496 12.6743 17.1967 12.5282C17.3438 12.382 17.5427 12.3 17.75 12.3ZM4.82 15.8H5.75C5.95819 15.8 6.15786 15.8827 6.30508 16.0299C6.4523 16.1771 6.535 16.3768 6.535 16.585V17.515C6.535 17.7232 6.4523 17.9229 6.30508 18.0701C6.15786 18.2173 5.95819 18.3 5.75 18.3H4.82C4.61181 18.3 4.41214 18.2173 4.26492 18.0701C4.11771 17.9229 4.035 17.7232 4.035 17.515V16.565C4.04022 16.3603 4.12522 16.1657 4.27187 16.0228C4.41853 15.8799 4.61522 15.7999 4.82 15.8ZM17.75 15.8H18.68C18.8882 15.8 19.0879 15.8827 19.2351 16.0299C19.3823 16.1771 19.465 16.3768 19.465 16.585V17.515C19.465 17.7232 19.3823 17.9229 19.2351 18.0701C19.0879 18.2173 18.8882 18.3 18.68 18.3H17.75C17.5418 18.3 17.3421 18.2173 17.1949 18.0701C17.0477 17.9229 16.965 17.7232 16.965 17.515V16.565C16.9702 16.3603 17.0552 16.1657 17.2019 16.0228C17.3485 15.8799 17.5452 15.7999 17.75 15.8Z" stroke="white" stroke-linecap="round" stroke-linejoin="round"/>
</svg>
