<svg width="24" height="24" viewBox="0 0 24 24" fill="none" xmlns="http://www.w3.org/2000/svg">
<path d="M12.0002 16.807C12.0003 16.5299 12.0732 16.2577 12.2117 16.0176C12.3502 15.7776 12.5494 15.5782 12.7892 15.4395L21.4867 10.412C21.5668 10.3657 21.6332 10.2992 21.6795 10.2191C21.7257 10.139 21.75 10.0482 21.75 9.95575C21.75 9.86329 21.7257 9.77246 21.6795 9.69237C21.6332 9.61229 21.5668 9.54577 21.4867 9.4995L12.7892 4.472C12.7093 4.42585 12.6187 4.40155 12.5264 4.40153C12.4341 4.4015 12.3434 4.42576 12.2635 4.47187C12.1835 4.51797 12.1171 4.5843 12.0709 4.66418C12.0247 4.74407 12.0003 4.83471 12.0002 4.927M12.0002 16.807V19.073M12.0002 16.807C12.0002 16.5299 11.9273 16.2577 11.7888 16.0176C11.6503 15.7776 11.4511 15.5782 11.2112 15.4395L2.51374 10.412C2.43369 10.3657 2.36723 10.2992 2.32102 10.2191C2.27481 10.139 2.25049 10.0482 2.25049 9.95575C2.25049 9.86329 2.27481 9.77246 2.32102 9.69237C2.36723 9.61229 2.43369 9.54577 2.51374 9.4995L11.2112 4.472C11.2912 4.42585 11.3818 4.40155 11.4741 4.40153C11.5664 4.4015 11.6571 4.42576 11.737 4.47187C11.817 4.51797 11.8834 4.5843 11.9296 4.66418C11.9758 4.74407 12.0001 4.83471 12.0002 4.927M12.0002 19.073C12.0003 19.1653 12.0247 19.2559 12.0709 19.3358C12.1171 19.4157 12.1835 19.482 12.2635 19.5281C12.3434 19.5742 12.4341 19.5985 12.5264 19.5985C12.6187 19.5984 12.7093 19.5741 12.7892 19.528L16.4242 17.427C16.6642 17.2883 16.8635 17.089 17.0021 16.8489C17.1406 16.6089 17.2136 16.3367 17.2137 16.0595V13.743C17.2137 13.4658 17.1408 13.1934 17.0022 12.9533C16.8636 12.7131 16.6643 12.5137 16.4242 12.375L12.7892 10.274C12.5493 10.1352 12.3501 9.93576 12.2116 9.69564C12.0731 9.45552 12.0002 9.18319 12.0002 8.906M12.0002 19.073C12.0001 19.1653 11.9758 19.2559 11.9296 19.3358C11.8834 19.4157 11.817 19.482 11.737 19.5281C11.6571 19.5742 11.5664 19.5985 11.4741 19.5985C11.3818 19.5984 11.2912 19.5741 11.2112 19.528L7.57624 17.427C7.33626 17.2883 7.13698 17.089 6.9984 16.8489C6.85983 16.6089 6.78683 16.3367 6.78674 16.0595V13.743C6.78674 13.4658 6.8597 13.1934 6.99828 12.9533C7.13686 12.7131 7.33619 12.5137 7.57624 12.375L11.2112 10.274C11.4512 10.1352 11.6504 9.93576 11.7889 9.69564C11.9274 9.45552 12.0003 9.18319 12.0002 8.906M12.0002 8.906V4.927" stroke="white" stroke-linecap="round" stroke-linejoin="round"/>
</svg>
