<svg width="24" height="25" viewBox="0 0 24 25" fill="none" xmlns="http://www.w3.org/2000/svg">
<path d="M19.5556 6.05017C19.5072 6.02831 19.4684 5.98952 19.4465 5.94108C18.832 4.47307 17.7972 3.21946 16.4723 2.33778C15.1474 1.45611 13.5915 0.985718 12 0.985718C10.4085 0.985718 8.85259 1.45611 7.52768 2.33778C6.20278 3.21946 5.16803 4.47307 4.55347 5.94108C4.53161 5.98952 4.49282 6.02831 4.44438 6.05017C3.12327 6.66168 2.00365 7.63683 1.21658 8.8615C0.429501 10.0862 0.0075218 11.5097 2.66706e-05 12.9654C-0.0108824 17.0825 3.3262 20.5145 7.44001 20.6236C8.80457 20.6615 10.154 20.3298 11.3455 19.6636V24.3327C11.3455 24.5063 11.4144 24.6728 11.5372 24.7955C11.6599 24.9183 11.8264 24.9872 12 24.9872C12.1736 24.9872 12.3401 24.9183 12.4628 24.7955C12.5856 24.6728 12.6545 24.5063 12.6545 24.3327V19.6614C13.7882 20.2942 15.0653 20.6255 16.3636 20.6236H16.5611C20.6738 20.5145 24.0109 17.0847 24 12.9676C23.9926 11.5115 23.5707 10.0877 22.7837 8.86263C21.9966 7.6376 20.8769 6.66206 19.5556 6.05017ZM16.5273 19.3145C15.2215 19.3511 13.9368 18.9797 12.852 18.252C12.7888 18.211 12.7228 18.1746 12.6545 18.1429V13.3974L17.5287 10.9603C17.6841 10.8828 17.8023 10.7467 17.8573 10.582C17.9124 10.4173 17.8997 10.2375 17.8222 10.0822C17.7446 9.92679 17.6085 9.80859 17.4439 9.75356C17.2792 9.69853 17.0994 9.71117 16.944 9.78871L12.6545 11.928V8.62362C12.6545 8.45002 12.5856 8.28354 12.4628 8.16079C12.3401 8.03804 12.1736 7.96908 12 7.96908C11.8264 7.96908 11.6599 8.03804 11.5372 8.16079C11.4144 8.28354 11.3455 8.45002 11.3455 8.62362V14.5462L7.05601 12.4014C6.90064 12.3239 6.72084 12.3112 6.55614 12.3663C6.39145 12.4213 6.25537 12.5395 6.17783 12.6949C6.10029 12.8503 6.08765 13.0301 6.14268 13.1948C6.19771 13.3594 6.31592 13.4955 6.47128 13.5731L11.3455 16.0102V18.1374C11.2772 18.1691 11.2112 18.2056 11.148 18.2465C10.0641 18.9766 8.77916 19.35 7.47274 19.3145C6.04355 19.2784 4.66871 18.7594 3.57223 17.842C2.47576 16.9246 1.72228 15.6629 1.43459 14.2625C1.14689 12.8621 1.34194 11.4056 1.98793 10.1302C2.63393 8.85486 3.69281 7.83586 4.99202 7.23926C5.33915 7.07907 5.61359 6.79452 5.7611 6.44181C6.27603 5.21191 7.14298 4.16164 8.25302 3.42298C9.36306 2.68432 10.6667 2.29023 12 2.29023C13.3333 2.29023 14.6369 2.68432 15.747 3.42298C16.857 4.16164 17.724 5.21191 18.2389 6.44181C18.3869 6.7937 18.6612 7.07742 19.008 7.23708C20.3084 7.83299 21.3685 8.85197 22.0154 10.1278C22.6623 11.4036 22.8578 12.861 22.57 14.2622C22.2822 15.6634 21.528 16.9257 20.4306 17.8433C19.3332 18.7608 17.9573 19.2794 16.5273 19.3145Z" fill="white"/>
</svg>
