<svg width="30" height="30" viewBox="0 0 30 30" fill="none" xmlns="http://www.w3.org/2000/svg">
<path d="M9.92435 26.9325C9.57284 26.5809 9.37537 26.104 9.37537 25.6068C9.37537 25.1097 9.57284 24.6328 9.92435 24.2812L19.2056 15L9.92435 5.71872C9.5828 5.36509 9.39381 4.89146 9.39808 4.39984C9.40235 3.90822 9.59955 3.43795 9.94719 3.09031C10.2948 2.74267 10.7651 2.54548 11.2567 2.54121C11.7483 2.53694 12.222 2.72593 12.5756 3.06747L23.1825 13.6743C23.534 14.026 23.7314 14.5028 23.7314 15C23.7314 15.4972 23.534 15.974 23.1825 16.3256L12.5756 26.9325C12.224 27.284 11.7472 27.4814 11.25 27.4814C10.7528 27.4814 10.276 27.284 9.92435 26.9325Z" fill="white"/>
</svg>
