<svg width="30" height="30" viewBox="0 0 30 30" fill="none" xmlns="http://www.w3.org/2000/svg">
<path d="M20.0747 3.06759C20.4262 3.4192 20.6237 3.89603 20.6237 4.39321C20.6237 4.8904 20.4262 5.36723 20.0747 5.71884L10.7934 15.0001L20.0747 24.2813C20.4162 24.635 20.6052 25.1086 20.6009 25.6002C20.5967 26.0918 20.3995 26.5621 20.0518 26.9097C19.7042 27.2574 19.2339 27.4546 18.7423 27.4589C18.2507 27.4631 17.7771 27.2741 17.4234 26.9326L6.81655 16.3257C6.46504 15.9741 6.26758 15.4973 6.26758 15.0001C6.26758 14.5029 6.46504 14.0261 6.81655 13.6745L17.4234 3.06759C17.775 2.71608 18.2519 2.51862 18.7491 2.51862C19.2462 2.51862 19.7231 2.71608 20.0747 3.06759Z" fill="white"/>
</svg>
