<svg width="50" height="40" viewBox="0 0 50 40" fill="none" xmlns="http://www.w3.org/2000/svg">
<path fill-rule="evenodd" clip-rule="evenodd" d="M25 4C26.71 4 28.464 4.04436 30.164 4.11695L32.172 4.21373L34.094 4.32866L35.894 4.45165L37.538 4.58069C39.3221 4.71836 41.0009 5.4859 42.2791 6.74829C43.5572 8.01067 44.3529 9.68703 44.526 11.4825L44.606 12.3394L44.756 14.1742C44.896 16.0756 45 18.1483 45 20.1303C45 22.1124 44.896 24.1851 44.756 26.0865L44.606 27.9213C44.58 28.2157 44.554 28.5 44.526 28.7782C44.3528 30.574 43.5569 32.2506 42.2783 33.513C40.9997 34.7754 39.3205 35.5428 37.536 35.68L35.896 35.807L34.096 35.932L32.172 36.047L30.164 36.1437C28.4437 36.2191 26.722 36.2581 25 36.2607C23.278 36.2581 21.5563 36.2191 19.836 36.1437L17.828 36.047L15.906 35.932L14.106 35.807L12.462 35.68C10.6779 35.5423 8.9991 34.7748 7.72095 33.5124C6.44279 32.25 5.64715 30.5736 5.474 28.7782L5.394 27.9213L5.244 26.0865C5.09108 24.1047 5.00969 22.118 5 20.1303C5 18.1483 5.104 16.0756 5.244 14.1742L5.394 12.3394C5.42 12.045 5.446 11.7607 5.474 11.4825C5.64708 9.68735 6.44243 8.01124 7.72018 6.7489C8.99793 5.48655 10.6763 4.71881 12.46 4.58069L14.102 4.45165L15.902 4.32866L17.826 4.21373L19.834 4.11695C21.555 4.0416 23.2774 4.00261 25 4ZM21 15.2408V25.0198C21 25.9514 22 26.5321 22.8 26.0683L31.2 21.1788C31.3828 21.0727 31.5346 20.92 31.6402 20.7359C31.7458 20.5518 31.8013 20.343 31.8013 20.1303C31.8013 19.9177 31.7458 19.7088 31.6402 19.5248C31.5346 19.3407 31.3828 19.1879 31.2 19.0819L22.8 14.1944C22.6175 14.0882 22.4105 14.0323 22.1998 14.0323C21.9891 14.0323 21.7821 14.0883 21.5997 14.1946C21.4172 14.3008 21.2657 14.4537 21.1605 14.6377C21.0552 14.8217 20.9999 15.0304 21 15.2428V15.2408Z" fill="white"/>
</svg>
