<svg width="40" height="40" viewBox="0 0 40 40" fill="none" xmlns="http://www.w3.org/2000/svg">
<path d="M5.38 5.38C3 7.78267 3 11.6247 3 19.32V20.68C3 28.364 3 32.206 5.38 34.62C7.78267 37 11.6247 37 19.32 37H20.68C28.364 37 32.206 37 34.62 34.62C37 32.2173 37 28.3753 37 20.68V19.32C37 11.636 37 7.794 34.62 5.38C32.2173 3 28.3753 3 20.68 3H19.32C11.636 3 7.794 3 5.38 5.38ZM8.73467 13.3473H12.6333C12.758 19.83 15.614 22.5727 17.8807 23.1393V13.3473H21.5413V18.9347C23.774 18.6967 26.1313 16.1467 26.9247 13.336H30.574C30.2765 14.791 29.6822 16.169 28.8281 17.3838C27.974 18.5987 26.8784 19.6243 25.61 20.3967C27.0256 21.101 28.2757 22.0975 29.2779 23.3204C30.2801 24.5434 31.0116 25.9649 31.424 27.4913H27.4007C26.5393 24.8053 24.386 22.72 21.5413 22.4367V27.4913H21.088C13.336 27.4913 8.916 22.1873 8.73467 13.3473Z" fill="white"/>
</svg>
