<svg width="71" height="20" viewBox="0 0 71 20" fill="none" xmlns="http://www.w3.org/2000/svg">
<path d="M12.4659 5H10.7045C10.6004 4.49337 10.4181 4.0483 10.1577 3.66477C9.90199 3.28125 9.58949 2.95928 9.22017 2.69886C8.85559 2.43371 8.45076 2.23485 8.00568 2.10227C7.56061 1.9697 7.09659 1.90341 6.61364 1.90341C5.73295 1.90341 4.93513 2.12595 4.22017 2.57102C3.50994 3.0161 2.94413 3.67188 2.52273 4.53835C2.10606 5.40483 1.89773 6.4678 1.89773 7.72727C1.89773 8.98674 2.10606 10.0497 2.52273 10.9162C2.94413 11.7827 3.50994 12.4384 4.22017 12.8835C4.93513 13.3286 5.73295 13.5511 6.61364 13.5511C7.09659 13.5511 7.56061 13.4848 8.00568 13.3523C8.45076 13.2197 8.85559 13.0232 9.22017 12.7628C9.58949 12.4976 9.90199 12.1733 10.1577 11.7898C10.4181 11.4015 10.6004 10.9564 10.7045 10.4545H12.4659C12.3333 11.1979 12.0919 11.8632 11.7415 12.4503C11.3911 13.0374 10.9555 13.5369 10.4347 13.9489C9.91383 14.3561 9.32907 14.6662 8.6804 14.8793C8.03646 15.0923 7.34754 15.1989 6.61364 15.1989C5.37311 15.1989 4.26989 14.8958 3.30398 14.2898C2.33807 13.6837 1.57813 12.822 1.02415 11.7045C0.470171 10.5871 0.193182 9.26136 0.193182 7.72727C0.193182 6.19318 0.470171 4.86742 1.02415 3.75C1.57813 2.63258 2.33807 1.77083 3.30398 1.16477C4.26989 0.558712 5.37311 0.255681 6.61364 0.255681C7.34754 0.255681 8.03646 0.362215 8.6804 0.575284C9.32907 0.788352 9.91383 1.10085 10.4347 1.51278C10.9555 1.91998 11.3911 2.41714 11.7415 3.00426C12.0919 3.58665 12.3333 4.25189 12.4659 5ZM18.2951 15.2557C17.6038 15.2557 16.9764 15.1255 16.413 14.8651C15.8496 14.5999 15.4021 14.2188 15.0707 13.7216C14.7392 13.2197 14.5735 12.6136 14.5735 11.9034C14.5735 11.2784 14.6966 10.7718 14.9428 10.3835C15.189 9.99053 15.5181 9.68276 15.93 9.46023C16.342 9.23769 16.7965 9.07197 17.2937 8.96307C17.7956 8.84943 18.2998 8.75947 18.8065 8.69318C19.4693 8.60795 20.0067 8.54403 20.4187 8.50142C20.8353 8.45407 21.1384 8.37595 21.3278 8.26705C21.5219 8.15814 21.619 7.96875 21.619 7.69886V7.64205C21.619 6.94129 21.4272 6.39678 21.0437 6.00852C20.6649 5.62027 20.0896 5.42614 19.3178 5.42614C18.5176 5.42614 17.8903 5.60133 17.4357 5.9517C16.9812 6.30208 16.6616 6.67614 16.4769 7.07386L14.886 6.50568C15.1701 5.8428 15.5489 5.3267 16.0224 4.95739C16.5006 4.58333 17.0214 4.32292 17.5849 4.17614C18.1531 4.02462 18.7118 3.94886 19.261 3.94886C19.6114 3.94886 20.0138 3.99148 20.4684 4.0767C20.9277 4.1572 21.3704 4.32528 21.7965 4.58097C22.2274 4.83665 22.5849 5.22254 22.869 5.73864C23.1531 6.25473 23.2951 6.94602 23.2951 7.8125V15H21.619V13.5227H21.5337C21.4201 13.7595 21.2307 14.0128 20.9656 14.2827C20.7004 14.5526 20.3477 14.7822 19.9073 14.9716C19.467 15.161 18.9296 15.2557 18.2951 15.2557ZM18.5508 13.75C19.2137 13.75 19.7724 13.6198 20.2269 13.3594C20.6862 13.099 21.0318 12.7628 21.2638 12.3509C21.5006 11.9389 21.619 11.5057 21.619 11.0511V9.51705C21.5479 9.60227 21.3917 9.6804 21.1502 9.75142C20.9135 9.81771 20.6388 9.87689 20.3263 9.92898C20.0186 9.97633 19.7179 10.0189 19.4244 10.0568C19.1355 10.09 18.9012 10.1184 18.7212 10.142C18.2856 10.1989 17.8784 10.2912 17.4996 10.419C17.1256 10.5421 16.8226 10.7292 16.5906 10.9801C16.3633 11.2263 16.2496 11.5625 16.2496 11.9886C16.2496 12.571 16.4651 13.0114 16.896 13.3097C17.3316 13.6032 17.8832 13.75 18.5508 13.75ZM31.0987 4.09091V5.51136H25.4453V4.09091H31.0987ZM27.093 1.47727H28.7692V11.875C28.7692 12.3485 28.8378 12.7036 28.9751 12.9403C29.1172 13.1723 29.2971 13.3286 29.5149 13.4091C29.7375 13.4848 29.9718 13.5227 30.218 13.5227C30.4027 13.5227 30.5542 13.5133 30.6726 13.4943C30.791 13.4706 30.8857 13.4517 30.9567 13.4375L31.2976 14.9432C31.1839 14.9858 31.0253 15.0284 30.8217 15.071C30.6181 15.1184 30.3601 15.142 30.0476 15.142C29.5741 15.142 29.1101 15.0402 28.6555 14.8366C28.2057 14.633 27.8317 14.3229 27.5334 13.9062C27.2398 13.4896 27.093 12.964 27.093 12.3295V1.47727ZM36.8303 15.2557C36.139 15.2557 35.5116 15.1255 34.9482 14.8651C34.3847 14.5999 33.9373 14.2188 33.6058 13.7216C33.2744 13.2197 33.1087 12.6136 33.1087 11.9034C33.1087 11.2784 33.2318 10.7718 33.478 10.3835C33.7242 9.99053 34.0533 9.68276 34.4652 9.46023C34.8771 9.23769 35.3317 9.07197 35.8288 8.96307C36.3307 8.84943 36.835 8.75947 37.3416 8.69318C38.0045 8.60795 38.5419 8.54403 38.9538 8.50142C39.3705 8.45407 39.6735 8.37595 39.8629 8.26705C40.0571 8.15814 40.1541 7.96875 40.1541 7.69886V7.64205C40.1541 6.94129 39.9624 6.39678 39.5788 6.00852C39.2 5.62027 38.6248 5.42614 37.853 5.42614C37.0528 5.42614 36.4254 5.60133 35.9709 5.9517C35.5163 6.30208 35.1967 6.67614 35.0121 7.07386L33.4212 6.50568C33.7053 5.8428 34.084 5.3267 34.5575 4.95739C35.0357 4.58333 35.5566 4.32292 36.12 4.17614C36.6882 4.02462 37.2469 3.94886 37.7962 3.94886C38.1465 3.94886 38.549 3.99148 39.0036 4.0767C39.4628 4.1572 39.9055 4.32528 40.3317 4.58097C40.7625 4.83665 41.12 5.22254 41.4041 5.73864C41.6882 6.25473 41.8303 6.94602 41.8303 7.8125V15H40.1541V13.5227H40.0689C39.9553 13.7595 39.7659 14.0128 39.5007 14.2827C39.2356 14.5526 38.8828 14.7822 38.4425 14.9716C38.0021 15.161 37.4647 15.2557 36.8303 15.2557ZM37.0859 13.75C37.7488 13.75 38.3075 13.6198 38.7621 13.3594C39.2214 13.099 39.567 12.7628 39.799 12.3509C40.0357 11.9389 40.1541 11.5057 40.1541 11.0511V9.51705C40.0831 9.60227 39.9268 9.6804 39.6854 9.75142C39.4486 9.81771 39.174 9.87689 38.8615 9.92898C38.5537 9.97633 38.2531 10.0189 37.9595 10.0568C37.6707 10.09 37.4363 10.1184 37.2564 10.142C36.8208 10.1989 36.4136 10.2912 36.0348 10.419C35.6607 10.5421 35.3577 10.7292 35.1257 10.9801C34.8984 11.2263 34.7848 11.5625 34.7848 11.9886C34.7848 12.571 35.0002 13.0114 35.4311 13.3097C35.8667 13.6032 36.4183 13.75 37.0859 13.75ZM46.5657 0.454545V15H44.8896V0.454545H46.5657ZM54.0675 15.2273C53.0826 15.2273 52.2185 14.9929 51.4751 14.5241C50.7365 14.0554 50.1589 13.3996 49.7422 12.5568C49.3303 11.714 49.1243 10.7292 49.1243 9.60227C49.1243 8.46591 49.3303 7.47396 49.7422 6.62642C50.1589 5.77888 50.7365 5.12074 51.4751 4.65199C52.2185 4.18324 53.0826 3.94886 54.0675 3.94886C55.0523 3.94886 55.9141 4.18324 56.6527 4.65199C57.3961 5.12074 57.9737 5.77888 58.3857 6.62642C58.8023 7.47396 59.0107 8.46591 59.0107 9.60227C59.0107 10.7292 58.8023 11.714 58.3857 12.5568C57.9737 13.3996 57.3961 14.0554 56.6527 14.5241C55.9141 14.9929 55.0523 15.2273 54.0675 15.2273ZM54.0675 13.7216C54.8156 13.7216 55.4311 13.5298 55.9141 13.1463C56.397 12.7628 56.7545 12.2585 56.9865 11.6335C57.2185 11.0085 57.3345 10.3314 57.3345 9.60227C57.3345 8.87311 57.2185 8.19366 56.9865 7.56392C56.7545 6.93419 56.397 6.42519 55.9141 6.03693C55.4311 5.64867 54.8156 5.45455 54.0675 5.45455C53.3194 5.45455 52.7038 5.64867 52.2209 6.03693C51.7379 6.42519 51.3804 6.93419 51.1484 7.56392C50.9164 8.19366 50.8004 8.87311 50.8004 9.60227C50.8004 10.3314 50.9164 11.0085 51.1484 11.6335C51.3804 12.2585 51.7379 12.7628 52.2209 13.1463C52.7038 13.5298 53.3194 13.7216 54.0675 13.7216ZM65.9727 19.3182C65.163 19.3182 64.467 19.214 63.8846 19.0057C63.3022 18.8021 62.8169 18.5322 62.4286 18.196C62.0451 17.8646 61.7397 17.5095 61.5124 17.1307L62.8477 16.1932C62.9992 16.392 63.1909 16.6193 63.4229 16.875C63.6549 17.1354 63.9722 17.3603 64.3746 17.5497C64.7818 17.7438 65.3145 17.8409 65.9727 17.8409C66.8533 17.8409 67.5801 17.6278 68.1531 17.2017C68.726 16.7756 69.0124 16.108 69.0124 15.1989V12.983H68.8704C68.7473 13.1818 68.5721 13.428 68.3448 13.7216C68.1223 14.0104 67.8003 14.2685 67.3789 14.4957C66.9622 14.7183 66.3988 14.8295 65.6886 14.8295C64.8079 14.8295 64.0172 14.6212 63.3164 14.2045C62.6204 13.7879 62.0688 13.1818 61.6616 12.3864C61.2591 11.5909 61.0579 10.625 61.0579 9.48864C61.0579 8.37121 61.2544 7.3982 61.6474 6.5696C62.0404 5.73627 62.5872 5.09233 63.288 4.63778C63.9888 4.1785 64.7984 3.94886 65.717 3.94886C66.4272 3.94886 66.9906 4.06723 67.4073 4.30398C67.8287 4.53598 68.1507 4.80114 68.3732 5.09943C68.6005 5.39299 68.7757 5.63447 68.8988 5.82386H69.0692V4.09091H70.6886V15.3125C70.6886 16.25 70.4755 17.0123 70.0494 17.5994C69.628 18.1913 69.0598 18.6245 68.3448 18.8991C67.6346 19.1785 66.8439 19.3182 65.9727 19.3182ZM65.9158 13.3239C66.5882 13.3239 67.1564 13.17 67.6204 12.8622C68.0844 12.5545 68.4371 12.1117 68.6786 11.5341C68.9201 10.9564 69.0408 10.2652 69.0408 9.46023C69.0408 8.67424 68.9225 7.98059 68.6857 7.37926C68.449 6.77794 68.0986 6.30682 67.6346 5.96591C67.1706 5.625 66.5977 5.45455 65.9158 5.45455C65.2056 5.45455 64.6138 5.63447 64.1403 5.99432C63.6715 6.35417 63.3188 6.83712 63.082 7.44318C62.85 8.04924 62.734 8.72159 62.734 9.46023C62.734 10.2178 62.8524 10.8878 63.0891 11.4702C63.3306 12.0478 63.6857 12.5024 64.1545 12.8338C64.628 13.1605 65.2151 13.3239 65.9158 13.3239Z" fill="white"/>
</svg>
