<svg width="54" height="16" viewBox="0 0 54 16" fill="none" xmlns="http://www.w3.org/2000/svg">
<path d="M0.761364 15V0.454545H2.52273V6.93182H10.2784V0.454545H12.0398V15H10.2784V8.49432H2.52273V15H0.761364ZM19.7706 15.2273C18.7857 15.2273 17.9216 14.9929 17.1783 14.5241C16.4396 14.0554 15.862 13.3996 15.4453 12.5568C15.0334 11.714 14.8274 10.7292 14.8274 9.60227C14.8274 8.46591 15.0334 7.47396 15.4453 6.62642C15.862 5.77888 16.4396 5.12074 17.1783 4.65199C17.9216 4.18324 18.7857 3.94886 19.7706 3.94886C20.7554 3.94886 21.6172 4.18324 22.3558 4.65199C23.0992 5.12074 23.6768 5.77888 24.0888 6.62642C24.5054 7.47396 24.7138 8.46591 24.7138 9.60227C24.7138 10.7292 24.5054 11.714 24.0888 12.5568C23.6768 13.3996 23.0992 14.0554 22.3558 14.5241C21.6172 14.9929 20.7554 15.2273 19.7706 15.2273ZM19.7706 13.7216C20.5187 13.7216 21.1342 13.5298 21.6172 13.1463C22.1001 12.7628 22.4576 12.2585 22.6896 11.6335C22.9216 11.0085 23.0376 10.3314 23.0376 9.60227C23.0376 8.87311 22.9216 8.19366 22.6896 7.56392C22.4576 6.93419 22.1001 6.42519 21.6172 6.03693C21.1342 5.64867 20.5187 5.45455 19.7706 5.45455C19.0225 5.45455 18.407 5.64867 17.924 6.03693C17.4411 6.42519 17.0836 6.93419 16.8516 7.56392C16.6196 8.19366 16.5036 8.87311 16.5036 9.60227C16.5036 10.3314 16.6196 11.0085 16.8516 11.6335C17.0836 12.2585 17.4411 12.7628 17.924 13.1463C18.407 13.5298 19.0225 13.7216 19.7706 13.7216ZM27.2724 15V4.09091H28.8917V5.79545H29.0337C29.261 5.21307 29.628 4.76089 30.1346 4.43892C30.6412 4.11222 31.2496 3.94886 31.9599 3.94886C32.6796 3.94886 33.2785 4.11222 33.7567 4.43892C34.2397 4.76089 34.6161 5.21307 34.886 5.79545H34.9996C35.279 5.23201 35.698 4.78456 36.2567 4.45312C36.8155 4.11695 37.4854 3.94886 38.2667 3.94886C39.2421 3.94886 40.0399 4.25426 40.6602 4.86506C41.2804 5.47112 41.5906 6.41572 41.5906 7.69886V15H39.9144V7.69886C39.9144 6.89394 39.6942 6.31866 39.2539 5.97301C38.8136 5.62737 38.2951 5.45455 37.6985 5.45455C36.9315 5.45455 36.3372 5.68655 35.9158 6.15057C35.4944 6.60985 35.2837 7.19223 35.2837 7.89773V15H33.5792V7.52841C33.5792 6.90814 33.378 6.40862 32.9755 6.02983C32.573 5.64631 32.0546 5.45455 31.4201 5.45455C30.9845 5.45455 30.5773 5.57055 30.1985 5.80256C29.8245 6.03456 29.5214 6.35653 29.2894 6.76847C29.0621 7.17566 28.9485 7.64678 28.9485 8.18182V15H27.2724ZM49.229 15.2273C48.1779 15.2273 47.2712 14.9953 46.5089 14.5312C45.7513 14.0625 45.1665 13.4091 44.7546 12.571C44.3474 11.7282 44.1438 10.7481 44.1438 9.63068C44.1438 8.51326 44.3474 7.52841 44.7546 6.67614C45.1665 5.81913 45.7395 5.15152 46.4734 4.6733C47.212 4.19034 48.0737 3.94886 49.0586 3.94886C49.6268 3.94886 50.1879 4.04356 50.7418 4.23295C51.2958 4.42235 51.8001 4.73011 52.2546 5.15625C52.7092 5.57765 53.0714 6.13636 53.3413 6.83239C53.6112 7.52841 53.7461 8.38542 53.7461 9.40341V10.1136H45.337V8.66477H52.0415C52.0415 8.04924 51.9184 7.5 51.6722 7.01705C51.4308 6.53409 51.0851 6.15294 50.6353 5.87358C50.1902 5.59422 49.6647 5.45455 49.0586 5.45455C48.391 5.45455 47.8133 5.62026 47.3256 5.9517C46.8427 6.27841 46.471 6.70455 46.2106 7.23011C45.9502 7.75568 45.82 8.31913 45.82 8.92045V9.88636C45.82 10.7102 45.962 11.4086 46.2461 11.9815C46.5349 12.5497 46.935 12.983 47.4464 13.2812C47.9577 13.5748 48.552 13.7216 49.229 13.7216C49.6694 13.7216 50.0671 13.66 50.4222 13.5369C50.7821 13.4091 51.0922 13.2197 51.3526 12.9688C51.613 12.7131 51.8143 12.3958 51.9563 12.017L53.5756 12.4716C53.4052 13.0208 53.1187 13.5038 52.7163 13.9205C52.3138 14.3324 51.8166 14.6544 51.2248 14.8864C50.6329 15.1136 49.9677 15.2273 49.229 15.2273Z" fill="white"/>
</svg>
