<svg width="164" height="40" viewBox="0 0 164 40" fill="none" xmlns="http://www.w3.org/2000/svg">
<path d="M2.73145 0.489258C3.87728 0.525065 4.87988 0.542969 5.73926 0.542969C6.59863 0.507161 7.29688 0.489258 7.83398 0.489258H9.3916C9.78548 0.453451 10.2689 0.435547 10.8418 0.435547C11.3431 0.435547 11.9518 0.435547 12.668 0.435547C13.3841 0.435547 14.2077 0.453451 15.1387 0.489258C15.4251 1.49186 15.7474 2.47656 16.1055 3.44336C16.4993 4.37435 16.8395 5.21582 17.126 5.96777C17.484 6.86296 17.8421 7.70443 18.2002 8.49219C18.5583 9.27995 18.988 10.2288 19.4893 11.3389C19.9189 12.2699 20.4382 13.4157 21.0469 14.7764C21.6556 16.1012 22.3717 17.623 23.1953 19.3418C23.5892 18.2318 23.9473 17.2113 24.2695 16.2803C24.6276 15.3493 24.932 14.5436 25.1826 13.8633C25.4691 13.0755 25.7018 12.3594 25.8809 11.7148C26.0599 11.0703 26.2568 10.2826 26.4717 9.35156C26.6507 8.5638 26.8477 7.61491 27.0625 6.50488C27.3132 5.39486 27.5638 4.10579 27.8145 2.6377C28.8529 2.6377 29.7839 2.6377 30.6074 2.6377C31.431 2.6377 32.1471 2.61979 32.7559 2.58398C33.4362 2.58398 34.0449 2.56608 34.582 2.53027C35.1549 2.53027 35.9248 2.49447 36.8916 2.42285C37.7152 2.35124 38.8073 2.29753 40.168 2.26172C41.5645 2.1901 43.2832 2.10059 45.3242 1.99316C44.5723 2.53027 43.9635 3.06738 43.498 3.60449C43.0684 4.10579 42.7282 4.55339 42.4775 4.94727C42.1911 5.41276 42.012 5.86035 41.9404 6.29004C41.8688 6.64811 41.7972 7.47168 41.7256 8.76074C41.6898 10.0498 41.6361 11.5895 41.5645 13.3799C41.5286 15.1344 41.4928 17.0143 41.457 19.0195C41.457 21.0247 41.4749 22.9225 41.5107 24.7129C41.5465 26.5033 41.6003 28.0609 41.6719 29.3857C41.7793 30.6748 41.9225 31.4984 42.1016 31.8564C42.3522 32.2861 42.6924 32.7874 43.1221 33.3604C43.516 33.8617 44.0173 34.4346 44.626 35.0791C45.2705 35.7236 46.112 36.4398 47.1504 37.2275C45.5033 37.2992 44.1247 37.3529 43.0146 37.3887C41.9404 37.4245 41.0452 37.4603 40.3291 37.4961C39.5055 37.5319 38.8431 37.5498 38.3418 37.5498C37.8047 37.5498 37.0706 37.5677 36.1396 37.6035C35.3161 37.6393 34.224 37.693 32.8633 37.7646C31.5026 37.8005 29.748 37.8721 27.5996 37.9795C28.1009 37.4066 28.5664 36.8337 28.9961 36.2607C29.4258 35.6878 29.7839 35.1686 30.0703 34.7031C30.4284 34.166 30.7327 33.6468 30.9834 33.1455C31.234 32.4652 31.431 31.2298 31.5742 29.4395C31.7174 27.8997 31.8249 25.6976 31.8965 22.833C31.9681 19.9326 31.9681 16.0475 31.8965 11.1777C31.2161 12.2878 30.6074 13.3978 30.0703 14.5078C29.569 15.582 29.1214 16.5667 28.7275 17.4619C28.2979 18.5003 27.904 19.5029 27.5459 20.4697C27.1878 21.4723 26.8118 22.5824 26.418 23.7998C26.0599 24.8382 25.6302 26.0736 25.1289 27.5059C24.6634 28.9382 24.1263 30.5137 23.5176 32.2324L21.4766 32.3398C21.1901 30.9076 20.9036 29.6185 20.6172 28.4727C20.3307 27.291 20.0443 26.2884 19.7578 25.4648C19.4355 24.498 19.1133 23.6387 18.791 22.8867C18.4329 22.1348 18.0391 21.2933 17.6094 20.3623C17.2155 19.5745 16.7321 18.6436 16.1592 17.5693C15.6221 16.4951 14.9954 15.2956 14.2793 13.9707C13.9212 17.623 13.7064 20.5951 13.6348 22.8867C13.5632 25.1426 13.5632 26.8971 13.6348 28.1504C13.7064 29.6543 13.8138 30.7464 13.957 31.4268C14.1719 32.0355 14.512 32.7158 14.9775 33.4678C15.3714 34.1123 15.9085 34.8822 16.5889 35.7773C17.305 36.6367 18.2181 37.6035 19.3281 38.6777C18.5404 38.6777 17.7168 38.6777 16.8574 38.6777C15.998 38.6777 15.2103 38.6956 14.4941 38.7314C13.6348 38.7673 12.7933 38.7852 11.9697 38.7852C11.1104 38.821 10.1077 38.8747 8.96191 38.9463C7.95931 39.0179 6.75977 39.0895 5.36328 39.1611C3.9668 39.2327 2.35547 39.3581 0.529297 39.5371C1.31706 39.0358 1.96159 38.5524 2.46289 38.0869C2.96419 37.5856 3.35807 37.138 3.64453 36.7441C4.0026 36.2786 4.27116 35.8132 4.4502 35.3477C4.55762 35.0612 4.64714 34.4346 4.71875 33.4678C4.82617 32.501 4.91569 31.3193 4.9873 29.9229C5.09473 28.5264 5.16634 26.9688 5.20215 25.25C5.27376 23.5312 5.32747 21.7946 5.36328 20.04C5.4349 18.2497 5.48861 16.513 5.52441 14.8301C5.56022 13.1113 5.57812 11.5716 5.57812 10.2109C5.61393 8.81445 5.63184 7.65072 5.63184 6.71973C5.63184 5.78874 5.63184 5.19792 5.63184 4.94727C5.52441 4.41016 5.36328 3.87305 5.14844 3.33594C4.9694 2.87044 4.68294 2.38704 4.28906 1.88574C3.89518 1.38444 3.37598 0.918945 2.73145 0.489258ZM61.0078 14.9375C61.9388 14.9375 62.9056 15.1165 63.9082 15.4746C64.9108 15.7969 65.8776 16.2266 66.8086 16.7637C67.7396 17.265 68.5811 17.82 69.333 18.4287C70.1208 19.0016 70.7653 19.5566 71.2666 20.0938C72.1618 21.0605 72.7705 22.3675 73.0928 24.0146C73.4508 25.626 73.5225 27.291 73.3076 29.0098C73.0928 30.6927 72.5915 32.2861 71.8037 33.79C71.016 35.2939 69.9238 36.404 68.5273 37.1201C67.5247 37.6214 66.54 38.0153 65.5732 38.3018C64.6064 38.5882 63.6755 38.8031 62.7803 38.9463C61.8851 39.0895 61.0436 39.1611 60.2559 39.1611C59.4681 39.1611 58.7878 39.1432 58.2148 39.1074C57.1406 39.0358 56.0127 38.6598 54.8311 37.9795C53.6852 37.2992 52.5931 36.4577 51.5547 35.4551C50.5521 34.4525 49.6927 33.3604 48.9766 32.1787C48.2604 30.9613 47.8307 29.8154 47.6875 28.7412C47.4727 27.2731 47.4368 25.7334 47.5801 24.1221C47.7233 22.5107 48.2425 21.0247 49.1377 19.6641C50.0687 18.3034 51.4652 17.1755 53.3271 16.2803C55.2249 15.3851 57.7852 14.9375 61.0078 14.9375ZM59.2354 35.7773C59.6292 35.849 60.1663 35.7594 60.8467 35.5088C61.527 35.2223 62.1895 34.7747 62.834 34.166C63.5143 33.5573 64.1051 32.7874 64.6064 31.8564C65.1436 30.8896 65.4658 29.7259 65.5732 28.3652C65.6807 27.0404 65.6807 25.8229 65.5732 24.7129C65.5016 23.6029 65.3405 22.6361 65.0898 21.8125C64.8392 20.9531 64.5527 20.2549 64.2305 19.7178C63.9082 19.1807 63.568 18.8047 63.21 18.5898C62.6012 18.2676 61.8672 18.0169 61.0078 17.8379C60.1484 17.623 59.4144 17.6589 58.8057 17.9453C58.5192 18.0885 58.1611 18.3929 57.7314 18.8584C57.3018 19.3239 56.8721 19.9147 56.4424 20.6309C56.0127 21.3112 55.6188 22.099 55.2607 22.9941C54.9385 23.8893 54.7057 24.8203 54.5625 25.7871C54.4193 26.7539 54.3835 27.7923 54.4551 28.9023C54.5625 30.0124 54.7952 31.0687 55.1533 32.0713C55.5114 33.0381 56.0127 33.8796 56.6572 34.5957C57.3376 35.276 58.1969 35.6699 59.2354 35.7773ZM70.6758 9.40527C71.2845 9.5127 71.9111 9.60221 72.5557 9.67383C73.1644 9.70964 73.7194 9.74544 74.2207 9.78125C74.7936 9.81706 75.3486 9.83496 75.8857 9.83496C76.4229 9.83496 77.0316 9.81706 77.7119 9.78125C78.2848 9.74544 78.9652 9.69173 79.7529 9.62012C80.5765 9.5485 81.4717 9.44108 82.4385 9.29785C81.8656 9.62012 81.418 9.96029 81.0957 10.3184C80.7734 10.6764 80.5228 10.9987 80.3438 11.2852C80.1289 11.6432 79.9857 11.9655 79.9141 12.252C79.8424 12.5384 79.8604 13.1292 79.9678 14.0244C80.0752 14.9196 80.2184 15.958 80.3975 17.1396C80.6123 18.3213 80.8451 19.5566 81.0957 20.8457C81.3464 22.1348 81.597 23.3164 81.8477 24.3906C82.1341 25.4648 82.3848 26.36 82.5996 27.0762C82.8503 27.7923 83.0472 28.1325 83.1904 28.0967C83.3337 28.0967 83.5485 27.7386 83.835 27.0225C84.1572 26.3063 84.5153 25.429 84.9092 24.3906C85.3031 23.3164 85.7148 22.1527 86.1445 20.8994C86.5742 19.6104 86.9502 18.4108 87.2725 17.3008C87.5947 16.1908 87.8454 15.2598 88.0244 14.5078C88.2393 13.7201 88.3288 13.2546 88.293 13.1113C88.1855 12.9681 88.0602 12.7712 87.917 12.5205C87.6663 12.1266 87.1113 11.4463 86.252 10.4795C87.2904 10.5511 88.1855 10.6227 88.9375 10.6943C89.6895 10.7301 90.2982 10.7839 90.7637 10.8555C91.3008 10.9271 91.7305 10.9808 92.0527 11.0166C92.375 11.0524 92.8405 11.0524 93.4492 11.0166C93.9505 11.0166 94.613 10.9987 95.4365 10.9629C96.2959 10.8913 97.3522 10.7839 98.6055 10.6406C97.6745 11.1777 96.9046 11.6611 96.2959 12.0908C95.723 12.4847 95.2754 12.8249 94.9531 13.1113C94.5592 13.4694 94.2728 13.7738 94.0938 14.0244C93.8431 14.4899 93.3955 15.5999 92.751 17.3545C92.4645 18.1064 92.1064 19.0374 91.6768 20.1475C91.2829 21.2575 90.7995 22.6003 90.2266 24.1758C89.6895 25.7155 89.0449 27.5238 88.293 29.6006C87.541 31.6774 86.6995 34.0586 85.7686 36.7441L80.5586 37.2812C79.8783 35.0254 79.3232 33.1455 78.8936 31.6416C78.4997 30.1019 78.1774 28.8665 77.9268 27.9355C77.6403 26.8613 77.4255 26.0199 77.2822 25.4111C77.1032 24.7308 76.8883 23.7461 76.6377 22.457C76.387 21.1322 76.1364 19.7894 75.8857 18.4287C75.6351 17.068 75.3844 15.8506 75.1338 14.7764C74.8831 13.6663 74.6862 12.986 74.543 12.7354C74.3997 12.5563 74.1491 12.3057 73.791 11.9834C73.5046 11.6969 73.1107 11.3568 72.6094 10.9629C72.1081 10.5332 71.4635 10.014 70.6758 9.40527ZM95.8662 14.9912L105.749 15.0986C105.176 17.2829 104.746 19.1449 104.46 20.6846C104.209 22.2243 104.048 23.5133 103.977 24.5518C103.833 25.7334 103.798 26.736 103.869 27.5596C103.977 28.3115 104.156 29.1172 104.406 29.9766C104.621 30.6927 104.943 31.5163 105.373 32.4473C105.803 33.3783 106.376 34.3092 107.092 35.2402C106.662 35.097 106.197 34.9896 105.695 34.918C105.194 34.8464 104.729 34.7926 104.299 34.7568C103.798 34.721 103.296 34.721 102.795 34.7568C102.294 34.7926 101.739 34.8464 101.13 34.918C100.629 34.9896 100.02 35.0791 99.3037 35.1865C98.5876 35.2939 97.8356 35.4372 97.0479 35.6162C97.585 34.0049 97.9967 32.6084 98.2832 31.4268C98.6055 30.2451 98.8382 29.2604 98.9814 28.4727C99.1247 27.5417 99.2142 26.7897 99.25 26.2168C99.25 25.5007 99.25 24.695 99.25 23.7998C99.25 22.8688 99.25 21.9736 99.25 21.1143C99.25 20.2549 99.2321 19.5029 99.1963 18.8584C99.1605 18.1781 99.0889 17.7484 98.9814 17.5693L98.4443 17.0322C98.2295 16.8532 97.9072 16.6025 97.4775 16.2803C97.0837 15.9222 96.5465 15.4925 95.8662 14.9912ZM99.6797 6.71973C100.432 6.32585 101.184 6.21842 101.936 6.39746C102.723 6.5765 103.332 6.91667 103.762 7.41797C104.191 7.91927 104.335 8.51009 104.191 9.19043C104.084 9.87077 103.511 10.5332 102.473 11.1777C101.434 11.7865 100.521 12.0013 99.7334 11.8223C98.9456 11.6432 98.3906 11.2673 98.0684 10.6943C97.7461 10.1214 97.6924 9.45898 97.9072 8.70703C98.1221 7.91927 98.7129 7.25684 99.6797 6.71973ZM122.99 30.3525C123.993 30.3525 124.924 30.2451 125.783 30.0303C126.499 29.8512 127.18 29.5648 127.824 29.1709C128.505 28.7412 128.952 28.1146 129.167 27.291C129.883 27.4342 130.492 27.5596 130.993 27.667C131.494 27.7386 131.924 27.8102 132.282 27.8818C132.676 27.9893 133.016 28.0609 133.303 28.0967C133.589 28.1683 133.929 28.2399 134.323 28.3115C134.681 28.3831 135.111 28.4727 135.612 28.5801C136.149 28.6517 136.776 28.7591 137.492 28.9023C136.955 28.8307 136.4 28.8844 135.827 29.0635C135.29 29.2425 134.771 29.4395 134.27 29.6543C133.697 29.9049 133.16 30.2093 132.658 30.5674C132.336 30.7822 131.96 31.1045 131.53 31.5342C131.136 31.9639 130.563 32.3757 129.812 32.7695C129.06 33.1634 128.057 33.5036 126.804 33.79C125.586 34.0407 124.011 34.1302 122.077 34.0586C119.75 33.987 117.798 33.5752 116.223 32.8232C114.647 32.0355 113.376 31.0866 112.409 29.9766C111.442 28.8307 110.744 27.5954 110.314 26.2705C109.885 24.9456 109.652 23.7103 109.616 22.5645C109.58 21.4186 109.921 20.2191 110.637 18.9658C111.353 17.7126 112.355 16.5667 113.645 15.5283C114.969 14.4899 116.563 13.6484 118.425 13.0039C120.287 12.3236 122.328 11.9834 124.548 11.9834C125.837 11.9834 127.019 12.1445 128.093 12.4668C129.203 12.7533 130.205 13.1471 131.101 13.6484C132.032 14.1497 132.837 14.7227 133.518 15.3672C134.198 15.9759 134.771 16.6025 135.236 17.2471C135.702 17.9274 136.096 18.6436 136.418 19.3955C136.704 20.04 136.937 20.7741 137.116 21.5977C137.295 22.4212 137.349 23.2627 137.277 24.1221C134.556 24.1937 132.354 24.2474 130.671 24.2832C129.024 24.319 127.735 24.3369 126.804 24.3369H124.387H122.561C121.916 24.3369 121.075 24.3548 120.036 24.3906C118.998 24.4264 117.727 24.4801 116.223 24.5518C116.402 25.984 116.849 27.0941 117.565 27.8818C118.317 28.6338 119.105 29.2067 119.929 29.6006C120.86 30.0303 121.88 30.2809 122.99 30.3525ZM118.156 20.6846C119.302 20.7562 120.251 20.8099 121.003 20.8457C121.791 20.8815 122.435 20.9173 122.937 20.9531C123.474 20.9889 123.903 21.0068 124.226 21.0068H125.568C126.464 21.0068 128.129 20.9531 130.563 20.8457C130.456 19.2702 130.116 18.0706 129.543 17.2471C129.006 16.4235 128.433 15.8148 127.824 15.4209C127.108 14.9912 126.32 14.7406 125.461 14.6689C123.133 14.7048 121.397 15.1882 120.251 16.1191C119.141 17.0501 118.443 18.5719 118.156 20.6846ZM163.112 8.33105C162.79 9.11882 162.504 9.83496 162.253 10.4795C162.038 11.124 161.841 11.6969 161.662 12.1982C161.483 12.7712 161.322 13.2725 161.179 13.7021C161.035 14.2035 160.874 14.7764 160.695 15.4209C160.516 15.9938 160.284 16.71 159.997 17.5693C159.746 18.3929 159.442 19.3776 159.084 20.5234C158.798 18.8047 158.278 17.444 157.526 16.4414C156.774 15.403 156.005 14.5973 155.217 14.0244C154.286 13.3799 153.283 12.9144 152.209 12.6279C150.275 12.3057 148.879 12.3415 148.02 12.7354C147.16 13.1292 146.587 13.6305 146.301 14.2393C146.158 14.4899 145.996 14.8122 145.817 15.2061C145.674 15.5641 145.549 15.9401 145.441 16.334C145.37 16.7279 145.352 17.1217 145.388 17.5156C145.424 17.9095 145.585 18.2318 145.871 18.4824C146.05 18.6615 146.516 18.9121 147.268 19.2344C148.02 19.5208 148.915 19.861 149.953 20.2549C151.027 20.613 152.155 21.0068 153.337 21.4365C154.554 21.8662 155.7 22.2959 156.774 22.7256C157.849 23.1553 158.78 23.585 159.567 24.0146C160.355 24.4443 160.874 24.8382 161.125 25.1963C161.34 25.5544 161.573 26.0378 161.823 26.6465C162.11 27.2194 162.307 27.8639 162.414 28.5801C162.557 29.2604 162.593 29.9766 162.521 30.7285C162.486 31.4447 162.289 32.1608 161.931 32.877C161.573 33.5931 161 34.2555 160.212 34.8643C159.46 35.473 158.439 35.9743 157.15 36.3682C155.646 36.8337 154.196 36.959 152.8 36.7441C151.403 36.5293 150.114 36.207 148.933 35.7773C147.787 35.3477 146.784 34.9359 145.925 34.542C145.065 34.1123 144.457 33.9333 144.099 34.0049C143.705 34.0765 143.257 34.2734 142.756 34.5957C142.255 34.918 141.771 35.2581 141.306 35.6162C140.876 35.9385 140.5 36.2428 140.178 36.5293C139.855 36.7799 139.694 36.8695 139.694 36.7979C139.694 36.7262 139.748 36.5114 139.855 36.1533C139.999 35.7952 140.142 35.3656 140.285 34.8643C140.464 34.3271 140.625 33.7542 140.769 33.1455C140.948 32.501 141.073 31.8923 141.145 31.3193C141.216 30.8538 141.306 30.2809 141.413 29.6006C141.485 28.9919 141.574 28.2578 141.682 27.3984C141.825 26.5033 141.986 25.429 142.165 24.1758C142.344 25.1068 142.595 25.9124 142.917 26.5928C143.275 27.2731 143.615 27.8639 143.938 28.3652C144.331 28.9382 144.707 29.4215 145.065 29.8154C145.603 30.3167 146.229 30.7822 146.945 31.2119C147.697 31.6416 148.449 32.0176 149.201 32.3398C149.953 32.6263 150.669 32.8053 151.35 32.877C152.03 32.9486 152.603 32.877 153.068 32.6621C153.534 32.4473 153.928 32.0534 154.25 31.4805C154.608 30.9076 154.859 30.2809 155.002 29.6006C155.145 28.9202 155.199 28.2757 155.163 27.667C155.127 27.0225 154.966 26.5033 154.68 26.1094C154.465 25.8587 153.964 25.5365 153.176 25.1426C152.424 24.7487 151.511 24.319 150.437 23.8535C149.398 23.388 148.288 22.9046 147.106 22.4033C145.961 21.902 144.868 21.4007 143.83 20.8994C142.827 20.3623 141.986 19.861 141.306 19.3955C140.661 18.8942 140.303 18.4466 140.231 18.0527C140.16 17.4798 140.106 16.8532 140.07 16.1729C140.035 15.4567 140.07 14.7585 140.178 14.0781C140.321 13.362 140.572 12.6816 140.93 12.0371C141.324 11.3926 141.896 10.8555 142.648 10.4258C143.15 10.1393 143.812 9.92448 144.636 9.78125C145.459 9.63802 146.372 9.56641 147.375 9.56641C148.378 9.5306 149.416 9.56641 150.49 9.67383C151.564 9.74544 152.585 9.85286 153.552 9.99609C154.554 10.1035 155.45 10.2467 156.237 10.4258C157.061 10.6048 157.688 10.766 158.117 10.9092C158.618 11.0882 159.156 11.1061 159.729 10.9629C160.23 10.8555 160.767 10.6227 161.34 10.2646C161.913 9.90658 162.504 9.26204 163.112 8.33105Z" fill="url(#paint0_radial_14_439)"/>
<path d="M2.73145 0.489258C3.87728 0.525065 4.87988 0.542969 5.73926 0.542969C6.59863 0.507161 7.29688 0.489258 7.83398 0.489258H9.3916C9.78548 0.453451 10.2689 0.435547 10.8418 0.435547C11.3431 0.435547 11.9518 0.435547 12.668 0.435547C13.3841 0.435547 14.2077 0.453451 15.1387 0.489258C15.4251 1.49186 15.7474 2.47656 16.1055 3.44336C16.4993 4.37435 16.8395 5.21582 17.126 5.96777C17.484 6.86296 17.8421 7.70443 18.2002 8.49219C18.5583 9.27995 18.988 10.2288 19.4893 11.3389C19.9189 12.2699 20.4382 13.4157 21.0469 14.7764C21.6556 16.1012 22.3717 17.623 23.1953 19.3418C23.5892 18.2318 23.9473 17.2113 24.2695 16.2803C24.6276 15.3493 24.932 14.5436 25.1826 13.8633C25.4691 13.0755 25.7018 12.3594 25.8809 11.7148C26.0599 11.0703 26.2568 10.2826 26.4717 9.35156C26.6507 8.5638 26.8477 7.61491 27.0625 6.50488C27.3132 5.39486 27.5638 4.10579 27.8145 2.6377C28.8529 2.6377 29.7839 2.6377 30.6074 2.6377C31.431 2.6377 32.1471 2.61979 32.7559 2.58398C33.4362 2.58398 34.0449 2.56608 34.582 2.53027C35.1549 2.53027 35.9248 2.49447 36.8916 2.42285C37.7152 2.35124 38.8073 2.29753 40.168 2.26172C41.5645 2.1901 43.2832 2.10059 45.3242 1.99316C44.5723 2.53027 43.9635 3.06738 43.498 3.60449C43.0684 4.10579 42.7282 4.55339 42.4775 4.94727C42.1911 5.41276 42.012 5.86035 41.9404 6.29004C41.8688 6.64811 41.7972 7.47168 41.7256 8.76074C41.6898 10.0498 41.6361 11.5895 41.5645 13.3799C41.5286 15.1344 41.4928 17.0143 41.457 19.0195C41.457 21.0247 41.4749 22.9225 41.5107 24.7129C41.5465 26.5033 41.6003 28.0609 41.6719 29.3857C41.7793 30.6748 41.9225 31.4984 42.1016 31.8564C42.3522 32.2861 42.6924 32.7874 43.1221 33.3604C43.516 33.8617 44.0173 34.4346 44.626 35.0791C45.2705 35.7236 46.112 36.4398 47.1504 37.2275C45.5033 37.2992 44.1247 37.3529 43.0146 37.3887C41.9404 37.4245 41.0452 37.4603 40.3291 37.4961C39.5055 37.5319 38.8431 37.5498 38.3418 37.5498C37.8047 37.5498 37.0706 37.5677 36.1396 37.6035C35.3161 37.6393 34.224 37.693 32.8633 37.7646C31.5026 37.8005 29.748 37.8721 27.5996 37.9795C28.1009 37.4066 28.5664 36.8337 28.9961 36.2607C29.4258 35.6878 29.7839 35.1686 30.0703 34.7031C30.4284 34.166 30.7327 33.6468 30.9834 33.1455C31.234 32.4652 31.431 31.2298 31.5742 29.4395C31.7174 27.8997 31.8249 25.6976 31.8965 22.833C31.9681 19.9326 31.9681 16.0475 31.8965 11.1777C31.2161 12.2878 30.6074 13.3978 30.0703 14.5078C29.569 15.582 29.1214 16.5667 28.7275 17.4619C28.2979 18.5003 27.904 19.5029 27.5459 20.4697C27.1878 21.4723 26.8118 22.5824 26.418 23.7998C26.0599 24.8382 25.6302 26.0736 25.1289 27.5059C24.6634 28.9382 24.1263 30.5137 23.5176 32.2324L21.4766 32.3398C21.1901 30.9076 20.9036 29.6185 20.6172 28.4727C20.3307 27.291 20.0443 26.2884 19.7578 25.4648C19.4355 24.498 19.1133 23.6387 18.791 22.8867C18.4329 22.1348 18.0391 21.2933 17.6094 20.3623C17.2155 19.5745 16.7321 18.6436 16.1592 17.5693C15.6221 16.4951 14.9954 15.2956 14.2793 13.9707C13.9212 17.623 13.7064 20.5951 13.6348 22.8867C13.5632 25.1426 13.5632 26.8971 13.6348 28.1504C13.7064 29.6543 13.8138 30.7464 13.957 31.4268C14.1719 32.0355 14.512 32.7158 14.9775 33.4678C15.3714 34.1123 15.9085 34.8822 16.5889 35.7773C17.305 36.6367 18.2181 37.6035 19.3281 38.6777C18.5404 38.6777 17.7168 38.6777 16.8574 38.6777C15.998 38.6777 15.2103 38.6956 14.4941 38.7314C13.6348 38.7673 12.7933 38.7852 11.9697 38.7852C11.1104 38.821 10.1077 38.8747 8.96191 38.9463C7.95931 39.0179 6.75977 39.0895 5.36328 39.1611C3.9668 39.2327 2.35547 39.3581 0.529297 39.5371C1.31706 39.0358 1.96159 38.5524 2.46289 38.0869C2.96419 37.5856 3.35807 37.138 3.64453 36.7441C4.0026 36.2786 4.27116 35.8132 4.4502 35.3477C4.55762 35.0612 4.64714 34.4346 4.71875 33.4678C4.82617 32.501 4.91569 31.3193 4.9873 29.9229C5.09473 28.5264 5.16634 26.9688 5.20215 25.25C5.27376 23.5312 5.32747 21.7946 5.36328 20.04C5.4349 18.2497 5.48861 16.513 5.52441 14.8301C5.56022 13.1113 5.57812 11.5716 5.57812 10.2109C5.61393 8.81445 5.63184 7.65072 5.63184 6.71973C5.63184 5.78874 5.63184 5.19792 5.63184 4.94727C5.52441 4.41016 5.36328 3.87305 5.14844 3.33594C4.9694 2.87044 4.68294 2.38704 4.28906 1.88574C3.89518 1.38444 3.37598 0.918945 2.73145 0.489258ZM61.0078 14.9375C61.9388 14.9375 62.9056 15.1165 63.9082 15.4746C64.9108 15.7969 65.8776 16.2266 66.8086 16.7637C67.7396 17.265 68.5811 17.82 69.333 18.4287C70.1208 19.0016 70.7653 19.5566 71.2666 20.0938C72.1618 21.0605 72.7705 22.3675 73.0928 24.0146C73.4508 25.626 73.5225 27.291 73.3076 29.0098C73.0928 30.6927 72.5915 32.2861 71.8037 33.79C71.016 35.2939 69.9238 36.404 68.5273 37.1201C67.5247 37.6214 66.54 38.0153 65.5732 38.3018C64.6064 38.5882 63.6755 38.8031 62.7803 38.9463C61.8851 39.0895 61.0436 39.1611 60.2559 39.1611C59.4681 39.1611 58.7878 39.1432 58.2148 39.1074C57.1406 39.0358 56.0127 38.6598 54.8311 37.9795C53.6852 37.2992 52.5931 36.4577 51.5547 35.4551C50.5521 34.4525 49.6927 33.3604 48.9766 32.1787C48.2604 30.9613 47.8307 29.8154 47.6875 28.7412C47.4727 27.2731 47.4368 25.7334 47.5801 24.1221C47.7233 22.5107 48.2425 21.0247 49.1377 19.6641C50.0687 18.3034 51.4652 17.1755 53.3271 16.2803C55.2249 15.3851 57.7852 14.9375 61.0078 14.9375ZM59.2354 35.7773C59.6292 35.849 60.1663 35.7594 60.8467 35.5088C61.527 35.2223 62.1895 34.7747 62.834 34.166C63.5143 33.5573 64.1051 32.7874 64.6064 31.8564C65.1436 30.8896 65.4658 29.7259 65.5732 28.3652C65.6807 27.0404 65.6807 25.8229 65.5732 24.7129C65.5016 23.6029 65.3405 22.6361 65.0898 21.8125C64.8392 20.9531 64.5527 20.2549 64.2305 19.7178C63.9082 19.1807 63.568 18.8047 63.21 18.5898C62.6012 18.2676 61.8672 18.0169 61.0078 17.8379C60.1484 17.623 59.4144 17.6589 58.8057 17.9453C58.5192 18.0885 58.1611 18.3929 57.7314 18.8584C57.3018 19.3239 56.8721 19.9147 56.4424 20.6309C56.0127 21.3112 55.6188 22.099 55.2607 22.9941C54.9385 23.8893 54.7057 24.8203 54.5625 25.7871C54.4193 26.7539 54.3835 27.7923 54.4551 28.9023C54.5625 30.0124 54.7952 31.0687 55.1533 32.0713C55.5114 33.0381 56.0127 33.8796 56.6572 34.5957C57.3376 35.276 58.1969 35.6699 59.2354 35.7773ZM70.6758 9.40527C71.2845 9.5127 71.9111 9.60221 72.5557 9.67383C73.1644 9.70964 73.7194 9.74544 74.2207 9.78125C74.7936 9.81706 75.3486 9.83496 75.8857 9.83496C76.4229 9.83496 77.0316 9.81706 77.7119 9.78125C78.2848 9.74544 78.9652 9.69173 79.7529 9.62012C80.5765 9.5485 81.4717 9.44108 82.4385 9.29785C81.8656 9.62012 81.418 9.96029 81.0957 10.3184C80.7734 10.6764 80.5228 10.9987 80.3438 11.2852C80.1289 11.6432 79.9857 11.9655 79.9141 12.252C79.8424 12.5384 79.8604 13.1292 79.9678 14.0244C80.0752 14.9196 80.2184 15.958 80.3975 17.1396C80.6123 18.3213 80.8451 19.5566 81.0957 20.8457C81.3464 22.1348 81.597 23.3164 81.8477 24.3906C82.1341 25.4648 82.3848 26.36 82.5996 27.0762C82.8503 27.7923 83.0472 28.1325 83.1904 28.0967C83.3337 28.0967 83.5485 27.7386 83.835 27.0225C84.1572 26.3063 84.5153 25.429 84.9092 24.3906C85.3031 23.3164 85.7148 22.1527 86.1445 20.8994C86.5742 19.6104 86.9502 18.4108 87.2725 17.3008C87.5947 16.1908 87.8454 15.2598 88.0244 14.5078C88.2393 13.7201 88.3288 13.2546 88.293 13.1113C88.1855 12.9681 88.0602 12.7712 87.917 12.5205C87.6663 12.1266 87.1113 11.4463 86.252 10.4795C87.2904 10.5511 88.1855 10.6227 88.9375 10.6943C89.6895 10.7301 90.2982 10.7839 90.7637 10.8555C91.3008 10.9271 91.7305 10.9808 92.0527 11.0166C92.375 11.0524 92.8405 11.0524 93.4492 11.0166C93.9505 11.0166 94.613 10.9987 95.4365 10.9629C96.2959 10.8913 97.3522 10.7839 98.6055 10.6406C97.6745 11.1777 96.9046 11.6611 96.2959 12.0908C95.723 12.4847 95.2754 12.8249 94.9531 13.1113C94.5592 13.4694 94.2728 13.7738 94.0938 14.0244C93.8431 14.4899 93.3955 15.5999 92.751 17.3545C92.4645 18.1064 92.1064 19.0374 91.6768 20.1475C91.2829 21.2575 90.7995 22.6003 90.2266 24.1758C89.6895 25.7155 89.0449 27.5238 88.293 29.6006C87.541 31.6774 86.6995 34.0586 85.7686 36.7441L80.5586 37.2812C79.8783 35.0254 79.3232 33.1455 78.8936 31.6416C78.4997 30.1019 78.1774 28.8665 77.9268 27.9355C77.6403 26.8613 77.4255 26.0199 77.2822 25.4111C77.1032 24.7308 76.8883 23.7461 76.6377 22.457C76.387 21.1322 76.1364 19.7894 75.8857 18.4287C75.6351 17.068 75.3844 15.8506 75.1338 14.7764C74.8831 13.6663 74.6862 12.986 74.543 12.7354C74.3997 12.5563 74.1491 12.3057 73.791 11.9834C73.5046 11.6969 73.1107 11.3568 72.6094 10.9629C72.1081 10.5332 71.4635 10.014 70.6758 9.40527ZM95.8662 14.9912L105.749 15.0986C105.176 17.2829 104.746 19.1449 104.46 20.6846C104.209 22.2243 104.048 23.5133 103.977 24.5518C103.833 25.7334 103.798 26.736 103.869 27.5596C103.977 28.3115 104.156 29.1172 104.406 29.9766C104.621 30.6927 104.943 31.5163 105.373 32.4473C105.803 33.3783 106.376 34.3092 107.092 35.2402C106.662 35.097 106.197 34.9896 105.695 34.918C105.194 34.8464 104.729 34.7926 104.299 34.7568C103.798 34.721 103.296 34.721 102.795 34.7568C102.294 34.7926 101.739 34.8464 101.13 34.918C100.629 34.9896 100.02 35.0791 99.3037 35.1865C98.5876 35.2939 97.8356 35.4372 97.0479 35.6162C97.585 34.0049 97.9967 32.6084 98.2832 31.4268C98.6055 30.2451 98.8382 29.2604 98.9814 28.4727C99.1247 27.5417 99.2142 26.7897 99.25 26.2168C99.25 25.5007 99.25 24.695 99.25 23.7998C99.25 22.8688 99.25 21.9736 99.25 21.1143C99.25 20.2549 99.2321 19.5029 99.1963 18.8584C99.1605 18.1781 99.0889 17.7484 98.9814 17.5693L98.4443 17.0322C98.2295 16.8532 97.9072 16.6025 97.4775 16.2803C97.0837 15.9222 96.5465 15.4925 95.8662 14.9912ZM99.6797 6.71973C100.432 6.32585 101.184 6.21842 101.936 6.39746C102.723 6.5765 103.332 6.91667 103.762 7.41797C104.191 7.91927 104.335 8.51009 104.191 9.19043C104.084 9.87077 103.511 10.5332 102.473 11.1777C101.434 11.7865 100.521 12.0013 99.7334 11.8223C98.9456 11.6432 98.3906 11.2673 98.0684 10.6943C97.7461 10.1214 97.6924 9.45898 97.9072 8.70703C98.1221 7.91927 98.7129 7.25684 99.6797 6.71973ZM122.99 30.3525C123.993 30.3525 124.924 30.2451 125.783 30.0303C126.499 29.8512 127.18 29.5648 127.824 29.1709C128.505 28.7412 128.952 28.1146 129.167 27.291C129.883 27.4342 130.492 27.5596 130.993 27.667C131.494 27.7386 131.924 27.8102 132.282 27.8818C132.676 27.9893 133.016 28.0609 133.303 28.0967C133.589 28.1683 133.929 28.2399 134.323 28.3115C134.681 28.3831 135.111 28.4727 135.612 28.5801C136.149 28.6517 136.776 28.7591 137.492 28.9023C136.955 28.8307 136.4 28.8844 135.827 29.0635C135.29 29.2425 134.771 29.4395 134.27 29.6543C133.697 29.9049 133.16 30.2093 132.658 30.5674C132.336 30.7822 131.96 31.1045 131.53 31.5342C131.136 31.9639 130.563 32.3757 129.812 32.7695C129.06 33.1634 128.057 33.5036 126.804 33.79C125.586 34.0407 124.011 34.1302 122.077 34.0586C119.75 33.987 117.798 33.5752 116.223 32.8232C114.647 32.0355 113.376 31.0866 112.409 29.9766C111.442 28.8307 110.744 27.5954 110.314 26.2705C109.885 24.9456 109.652 23.7103 109.616 22.5645C109.58 21.4186 109.921 20.2191 110.637 18.9658C111.353 17.7126 112.355 16.5667 113.645 15.5283C114.969 14.4899 116.563 13.6484 118.425 13.0039C120.287 12.3236 122.328 11.9834 124.548 11.9834C125.837 11.9834 127.019 12.1445 128.093 12.4668C129.203 12.7533 130.205 13.1471 131.101 13.6484C132.032 14.1497 132.837 14.7227 133.518 15.3672C134.198 15.9759 134.771 16.6025 135.236 17.2471C135.702 17.9274 136.096 18.6436 136.418 19.3955C136.704 20.04 136.937 20.7741 137.116 21.5977C137.295 22.4212 137.349 23.2627 137.277 24.1221C134.556 24.1937 132.354 24.2474 130.671 24.2832C129.024 24.319 127.735 24.3369 126.804 24.3369H124.387H122.561C121.916 24.3369 121.075 24.3548 120.036 24.3906C118.998 24.4264 117.727 24.4801 116.223 24.5518C116.402 25.984 116.849 27.0941 117.565 27.8818C118.317 28.6338 119.105 29.2067 119.929 29.6006C120.86 30.0303 121.88 30.2809 122.99 30.3525ZM118.156 20.6846C119.302 20.7562 120.251 20.8099 121.003 20.8457C121.791 20.8815 122.435 20.9173 122.937 20.9531C123.474 20.9889 123.903 21.0068 124.226 21.0068H125.568C126.464 21.0068 128.129 20.9531 130.563 20.8457C130.456 19.2702 130.116 18.0706 129.543 17.2471C129.006 16.4235 128.433 15.8148 127.824 15.4209C127.108 14.9912 126.32 14.7406 125.461 14.6689C123.133 14.7048 121.397 15.1882 120.251 16.1191C119.141 17.0501 118.443 18.5719 118.156 20.6846ZM163.112 8.33105C162.79 9.11882 162.504 9.83496 162.253 10.4795C162.038 11.124 161.841 11.6969 161.662 12.1982C161.483 12.7712 161.322 13.2725 161.179 13.7021C161.035 14.2035 160.874 14.7764 160.695 15.4209C160.516 15.9938 160.284 16.71 159.997 17.5693C159.746 18.3929 159.442 19.3776 159.084 20.5234C158.798 18.8047 158.278 17.444 157.526 16.4414C156.774 15.403 156.005 14.5973 155.217 14.0244C154.286 13.3799 153.283 12.9144 152.209 12.6279C150.275 12.3057 148.879 12.3415 148.02 12.7354C147.16 13.1292 146.587 13.6305 146.301 14.2393C146.158 14.4899 145.996 14.8122 145.817 15.2061C145.674 15.5641 145.549 15.9401 145.441 16.334C145.37 16.7279 145.352 17.1217 145.388 17.5156C145.424 17.9095 145.585 18.2318 145.871 18.4824C146.05 18.6615 146.516 18.9121 147.268 19.2344C148.02 19.5208 148.915 19.861 149.953 20.2549C151.027 20.613 152.155 21.0068 153.337 21.4365C154.554 21.8662 155.7 22.2959 156.774 22.7256C157.849 23.1553 158.78 23.585 159.567 24.0146C160.355 24.4443 160.874 24.8382 161.125 25.1963C161.34 25.5544 161.573 26.0378 161.823 26.6465C162.11 27.2194 162.307 27.8639 162.414 28.5801C162.557 29.2604 162.593 29.9766 162.521 30.7285C162.486 31.4447 162.289 32.1608 161.931 32.877C161.573 33.5931 161 34.2555 160.212 34.8643C159.46 35.473 158.439 35.9743 157.15 36.3682C155.646 36.8337 154.196 36.959 152.8 36.7441C151.403 36.5293 150.114 36.207 148.933 35.7773C147.787 35.3477 146.784 34.9359 145.925 34.542C145.065 34.1123 144.457 33.9333 144.099 34.0049C143.705 34.0765 143.257 34.2734 142.756 34.5957C142.255 34.918 141.771 35.2581 141.306 35.6162C140.876 35.9385 140.5 36.2428 140.178 36.5293C139.855 36.7799 139.694 36.8695 139.694 36.7979C139.694 36.7262 139.748 36.5114 139.855 36.1533C139.999 35.7952 140.142 35.3656 140.285 34.8643C140.464 34.3271 140.625 33.7542 140.769 33.1455C140.948 32.501 141.073 31.8923 141.145 31.3193C141.216 30.8538 141.306 30.2809 141.413 29.6006C141.485 28.9919 141.574 28.2578 141.682 27.3984C141.825 26.5033 141.986 25.429 142.165 24.1758C142.344 25.1068 142.595 25.9124 142.917 26.5928C143.275 27.2731 143.615 27.8639 143.938 28.3652C144.331 28.9382 144.707 29.4215 145.065 29.8154C145.603 30.3167 146.229 30.7822 146.945 31.2119C147.697 31.6416 148.449 32.0176 149.201 32.3398C149.953 32.6263 150.669 32.8053 151.35 32.877C152.03 32.9486 152.603 32.877 153.068 32.6621C153.534 32.4473 153.928 32.0534 154.25 31.4805C154.608 30.9076 154.859 30.2809 155.002 29.6006C155.145 28.9202 155.199 28.2757 155.163 27.667C155.127 27.0225 154.966 26.5033 154.68 26.1094C154.465 25.8587 153.964 25.5365 153.176 25.1426C152.424 24.7487 151.511 24.319 150.437 23.8535C149.398 23.388 148.288 22.9046 147.106 22.4033C145.961 21.902 144.868 21.4007 143.83 20.8994C142.827 20.3623 141.986 19.861 141.306 19.3955C140.661 18.8942 140.303 18.4466 140.231 18.0527C140.16 17.4798 140.106 16.8532 140.07 16.1729C140.035 15.4567 140.07 14.7585 140.178 14.0781C140.321 13.362 140.572 12.6816 140.93 12.0371C141.324 11.3926 141.896 10.8555 142.648 10.4258C143.15 10.1393 143.812 9.92448 144.636 9.78125C145.459 9.63802 146.372 9.56641 147.375 9.56641C148.378 9.5306 149.416 9.56641 150.49 9.67383C151.564 9.74544 152.585 9.85286 153.552 9.99609C154.554 10.1035 155.45 10.2467 156.237 10.4258C157.061 10.6048 157.688 10.766 158.117 10.9092C158.618 11.0882 159.156 11.1061 159.729 10.9629C160.23 10.8555 160.767 10.6227 161.34 10.2646C161.913 9.90658 162.504 9.26204 163.112 8.33105Z" fill="black" fill-opacity="0.2"/>
<defs>
<radialGradient id="paint0_radial_14_439" cx="0" cy="0" r="1" gradientUnits="userSpaceOnUse" gradientTransform="translate(84 25.5887) rotate(-162.627) scale(604.287 130.881)">
<stop stop-color="#EFEEFE"/>
<stop offset="0.435" stop-color="#321069" stop-opacity="0.4"/>
<stop offset="1" stop-color="#101869"/>
</radialGradient>
</defs>
</svg>
