<svg width="96" height="24" viewBox="0 0 96 24" fill="none" xmlns="http://www.w3.org/2000/svg">
<path d="M1.84375 0.59375C2.51042 0.614583 3.09375 0.625 3.59375 0.625C4.09375 0.604167 4.5 0.59375 4.8125 0.59375H5.71875C5.94792 0.572917 6.22917 0.5625 6.5625 0.5625C6.85417 0.5625 7.20833 0.5625 7.625 0.5625C8.04167 0.5625 8.52083 0.572917 9.0625 0.59375C9.22917 1.17708 9.41667 1.75 9.625 2.3125C9.85417 2.85417 10.0521 3.34375 10.2188 3.78125C10.4271 4.30208 10.6354 4.79167 10.8438 5.25C11.0521 5.70833 11.3021 6.26042 11.5938 6.90625C11.8438 7.44792 12.1458 8.11458 12.5 8.90625C12.8542 9.67708 13.2708 10.5625 13.75 11.5625C13.9792 10.9167 14.1875 10.3229 14.375 9.78125C14.5833 9.23958 14.7604 8.77083 14.9062 8.375C15.0729 7.91667 15.2083 7.5 15.3125 7.125C15.4167 6.75 15.5312 6.29167 15.6562 5.75C15.7604 5.29167 15.875 4.73958 16 4.09375C16.1458 3.44792 16.2917 2.69792 16.4375 1.84375C17.0417 1.84375 17.5833 1.84375 18.0625 1.84375C18.5417 1.84375 18.9583 1.83333 19.3125 1.8125C19.7083 1.8125 20.0625 1.80208 20.375 1.78125C20.7083 1.78125 21.1562 1.76042 21.7188 1.71875C22.1979 1.67708 22.8333 1.64583 23.625 1.625C24.4375 1.58333 25.4375 1.53125 26.625 1.46875C26.1875 1.78125 25.8333 2.09375 25.5625 2.40625C25.3125 2.69792 25.1146 2.95833 24.9688 3.1875C24.8021 3.45833 24.6979 3.71875 24.6562 3.96875C24.6146 4.17708 24.5729 4.65625 24.5312 5.40625C24.5104 6.15625 24.4792 7.05208 24.4375 8.09375C24.4167 9.11458 24.3958 10.2083 24.375 11.375C24.375 12.5417 24.3854 13.6458 24.4062 14.6875C24.4271 15.7292 24.4583 16.6354 24.5 17.4062C24.5625 18.1562 24.6458 18.6354 24.75 18.8438C24.8958 19.0938 25.0938 19.3854 25.3438 19.7188C25.5729 20.0104 25.8646 20.3438 26.2188 20.7188C26.5938 21.0938 27.0833 21.5104 27.6875 21.9688C26.7292 22.0104 25.9271 22.0417 25.2812 22.0625C24.6562 22.0833 24.1354 22.1042 23.7188 22.125C23.2396 22.1458 22.8542 22.1562 22.5625 22.1562C22.25 22.1562 21.8229 22.1667 21.2812 22.1875C20.8021 22.2083 20.1667 22.2396 19.375 22.2812C18.5833 22.3021 17.5625 22.3438 16.3125 22.4062C16.6042 22.0729 16.875 21.7396 17.125 21.4062C17.375 21.0729 17.5833 20.7708 17.75 20.5C17.9583 20.1875 18.1354 19.8854 18.2812 19.5938C18.4271 19.1979 18.5417 18.4792 18.625 17.4375C18.7083 16.5417 18.7708 15.2604 18.8125 13.5938C18.8542 11.9062 18.8542 9.64583 18.8125 6.8125C18.4167 7.45833 18.0625 8.10417 17.75 8.75C17.4583 9.375 17.1979 9.94792 16.9688 10.4688C16.7188 11.0729 16.4896 11.6562 16.2812 12.2188C16.0729 12.8021 15.8542 13.4479 15.625 14.1562C15.4167 14.7604 15.1667 15.4792 14.875 16.3125C14.6042 17.1458 14.2917 18.0625 13.9375 19.0625L12.75 19.125C12.5833 18.2917 12.4167 17.5417 12.25 16.875C12.0833 16.1875 11.9167 15.6042 11.75 15.125C11.5625 14.5625 11.375 14.0625 11.1875 13.625C10.9792 13.1875 10.75 12.6979 10.5 12.1562C10.2708 11.6979 9.98958 11.1562 9.65625 10.5312C9.34375 9.90625 8.97917 9.20833 8.5625 8.4375C8.35417 10.5625 8.22917 12.2917 8.1875 13.625C8.14583 14.9375 8.14583 15.9583 8.1875 16.6875C8.22917 17.5625 8.29167 18.1979 8.375 18.5938C8.5 18.9479 8.69792 19.3438 8.96875 19.7812C9.19792 20.1562 9.51042 20.6042 9.90625 21.125C10.3229 21.625 10.8542 22.1875 11.5 22.8125C11.0417 22.8125 10.5625 22.8125 10.0625 22.8125C9.5625 22.8125 9.10417 22.8229 8.6875 22.8438C8.1875 22.8646 7.69792 22.875 7.21875 22.875C6.71875 22.8958 6.13542 22.9271 5.46875 22.9688C4.88542 23.0104 4.1875 23.0521 3.375 23.0938C2.5625 23.1354 1.625 23.2083 0.5625 23.3125C1.02083 23.0208 1.39583 22.7396 1.6875 22.4688C1.97917 22.1771 2.20833 21.9167 2.375 21.6875C2.58333 21.4167 2.73958 21.1458 2.84375 20.875C2.90625 20.7083 2.95833 20.3438 3 19.7812C3.0625 19.2188 3.11458 18.5312 3.15625 17.7188C3.21875 16.9062 3.26042 16 3.28125 15C3.32292 14 3.35417 12.9896 3.375 11.9688C3.41667 10.9271 3.44792 9.91667 3.46875 8.9375C3.48958 7.9375 3.5 7.04167 3.5 6.25C3.52083 5.4375 3.53125 4.76042 3.53125 4.21875C3.53125 3.67708 3.53125 3.33333 3.53125 3.1875C3.46875 2.875 3.375 2.5625 3.25 2.25C3.14583 1.97917 2.97917 1.69792 2.75 1.40625C2.52083 1.11458 2.21875 0.84375 1.84375 0.59375ZM35.75 9C36.2917 9 36.8542 9.10417 37.4375 9.3125C38.0208 9.5 38.5833 9.75 39.125 10.0625C39.6667 10.3542 40.1562 10.6771 40.5938 11.0312C41.0521 11.3646 41.4271 11.6875 41.7188 12C42.2396 12.5625 42.5938 13.3229 42.7812 14.2812C42.9896 15.2188 43.0312 16.1875 42.9062 17.1875C42.7812 18.1667 42.4896 19.0938 42.0312 19.9688C41.5729 20.8438 40.9375 21.4896 40.125 21.9062C39.5417 22.1979 38.9688 22.4271 38.4062 22.5938C37.8438 22.7604 37.3021 22.8854 36.7812 22.9688C36.2604 23.0521 35.7708 23.0938 35.3125 23.0938C34.8542 23.0938 34.4583 23.0833 34.125 23.0625C33.5 23.0208 32.8438 22.8021 32.1562 22.4062C31.4896 22.0104 30.8542 21.5208 30.25 20.9375C29.6667 20.3542 29.1667 19.7188 28.75 19.0312C28.3333 18.3229 28.0833 17.6562 28 17.0312C27.875 16.1771 27.8542 15.2812 27.9375 14.3438C28.0208 13.4062 28.3229 12.5417 28.8438 11.75C29.3854 10.9583 30.1979 10.3021 31.2812 9.78125C32.3854 9.26042 33.875 9 35.75 9ZM34.7188 21.125C34.9479 21.1667 35.2604 21.1146 35.6562 20.9688C36.0521 20.8021 36.4375 20.5417 36.8125 20.1875C37.2083 19.8333 37.5521 19.3854 37.8438 18.8438C38.1562 18.2812 38.3438 17.6042 38.4062 16.8125C38.4688 16.0417 38.4688 15.3333 38.4062 14.6875C38.3646 14.0417 38.2708 13.4792 38.125 13C37.9792 12.5 37.8125 12.0938 37.625 11.7812C37.4375 11.4688 37.2396 11.25 37.0312 11.125C36.6771 10.9375 36.25 10.7917 35.75 10.6875C35.25 10.5625 34.8229 10.5833 34.4688 10.75C34.3021 10.8333 34.0938 11.0104 33.8438 11.2812C33.5938 11.5521 33.3438 11.8958 33.0938 12.3125C32.8438 12.7083 32.6146 13.1667 32.4062 13.6875C32.2188 14.2083 32.0833 14.75 32 15.3125C31.9167 15.875 31.8958 16.4792 31.9375 17.125C32 17.7708 32.1354 18.3854 32.3438 18.9688C32.5521 19.5312 32.8438 20.0208 33.2188 20.4375C33.6146 20.8333 34.1146 21.0625 34.7188 21.125ZM41.375 5.78125C41.7292 5.84375 42.0938 5.89583 42.4688 5.9375C42.8229 5.95833 43.1458 5.97917 43.4375 6C43.7708 6.02083 44.0938 6.03125 44.4062 6.03125C44.7188 6.03125 45.0729 6.02083 45.4688 6C45.8021 5.97917 46.1979 5.94792 46.6562 5.90625C47.1354 5.86458 47.6562 5.80208 48.2188 5.71875C47.8854 5.90625 47.625 6.10417 47.4375 6.3125C47.25 6.52083 47.1042 6.70833 47 6.875C46.875 7.08333 46.7917 7.27083 46.75 7.4375C46.7083 7.60417 46.7188 7.94792 46.7812 8.46875C46.8438 8.98958 46.9271 9.59375 47.0312 10.2812C47.1562 10.9688 47.2917 11.6875 47.4375 12.4375C47.5833 13.1875 47.7292 13.875 47.875 14.5C48.0417 15.125 48.1875 15.6458 48.3125 16.0625C48.4583 16.4792 48.5729 16.6771 48.6562 16.6562C48.7396 16.6562 48.8646 16.4479 49.0312 16.0312C49.2188 15.6146 49.4271 15.1042 49.6562 14.5C49.8854 13.875 50.125 13.1979 50.375 12.4688C50.625 11.7188 50.8438 11.0208 51.0312 10.375C51.2188 9.72917 51.3646 9.1875 51.4688 8.75C51.5938 8.29167 51.6458 8.02083 51.625 7.9375C51.5625 7.85417 51.4896 7.73958 51.4062 7.59375C51.2604 7.36458 50.9375 6.96875 50.4375 6.40625C51.0417 6.44792 51.5625 6.48958 52 6.53125C52.4375 6.55208 52.7917 6.58333 53.0625 6.625C53.375 6.66667 53.625 6.69792 53.8125 6.71875C54 6.73958 54.2708 6.73958 54.625 6.71875C54.9167 6.71875 55.3021 6.70833 55.7812 6.6875C56.2812 6.64583 56.8958 6.58333 57.625 6.5C57.0833 6.8125 56.6354 7.09375 56.2812 7.34375C55.9479 7.57292 55.6875 7.77083 55.5 7.9375C55.2708 8.14583 55.1042 8.32292 55 8.46875C54.8542 8.73958 54.5938 9.38542 54.2188 10.4062C54.0521 10.8438 53.8438 11.3854 53.5938 12.0312C53.3646 12.6771 53.0833 13.4583 52.75 14.375C52.4375 15.2708 52.0625 16.3229 51.625 17.5312C51.1875 18.7396 50.6979 20.125 50.1562 21.6875L47.125 22C46.7292 20.6875 46.4062 19.5938 46.1562 18.7188C45.9271 17.8229 45.7396 17.1042 45.5938 16.5625C45.4271 15.9375 45.3021 15.4479 45.2188 15.0938C45.1146 14.6979 44.9896 14.125 44.8438 13.375C44.6979 12.6042 44.5521 11.8229 44.4062 11.0312C44.2604 10.2396 44.1146 9.53125 43.9688 8.90625C43.8229 8.26042 43.7083 7.86458 43.625 7.71875C43.5417 7.61458 43.3958 7.46875 43.1875 7.28125C43.0208 7.11458 42.7917 6.91667 42.5 6.6875C42.2083 6.4375 41.8333 6.13542 41.375 5.78125ZM56.0312 9.03125L61.7812 9.09375C61.4479 10.3646 61.1979 11.4479 61.0312 12.3438C60.8854 13.2396 60.7917 13.9896 60.75 14.5938C60.6667 15.2812 60.6458 15.8646 60.6875 16.3438C60.75 16.7812 60.8542 17.25 61 17.75C61.125 18.1667 61.3125 18.6458 61.5625 19.1875C61.8125 19.7292 62.1458 20.2708 62.5625 20.8125C62.3125 20.7292 62.0417 20.6667 61.75 20.625C61.4583 20.5833 61.1875 20.5521 60.9375 20.5312C60.6458 20.5104 60.3542 20.5104 60.0625 20.5312C59.7708 20.5521 59.4479 20.5833 59.0938 20.625C58.8021 20.6667 58.4479 20.7188 58.0312 20.7812C57.6146 20.8438 57.1771 20.9271 56.7188 21.0312C57.0312 20.0938 57.2708 19.2812 57.4375 18.5938C57.625 17.9062 57.7604 17.3333 57.8438 16.875C57.9271 16.3333 57.9792 15.8958 58 15.5625C58 15.1458 58 14.6771 58 14.1562C58 13.6146 58 13.0938 58 12.5938C58 12.0938 57.9896 11.6562 57.9688 11.2812C57.9479 10.8854 57.9062 10.6354 57.8438 10.5312L57.5312 10.2188C57.4062 10.1146 57.2188 9.96875 56.9688 9.78125C56.7396 9.57292 56.4271 9.32292 56.0312 9.03125ZM58.25 4.21875C58.6875 3.98958 59.125 3.92708 59.5625 4.03125C60.0208 4.13542 60.375 4.33333 60.625 4.625C60.875 4.91667 60.9583 5.26042 60.875 5.65625C60.8125 6.05208 60.4792 6.4375 59.875 6.8125C59.2708 7.16667 58.7396 7.29167 58.2812 7.1875C57.8229 7.08333 57.5 6.86458 57.3125 6.53125C57.125 6.19792 57.0938 5.8125 57.2188 5.375C57.3438 4.91667 57.6875 4.53125 58.25 4.21875ZM71.8125 17.9688C72.3958 17.9688 72.9375 17.9062 73.4375 17.7812C73.8542 17.6771 74.25 17.5104 74.625 17.2812C75.0208 17.0312 75.2812 16.6667 75.4062 16.1875C75.8229 16.2708 76.1771 16.3438 76.4688 16.4062C76.7604 16.4479 77.0104 16.4896 77.2188 16.5312C77.4479 16.5938 77.6458 16.6354 77.8125 16.6562C77.9792 16.6979 78.1771 16.7396 78.4062 16.7812C78.6146 16.8229 78.8646 16.875 79.1562 16.9375C79.4688 16.9792 79.8333 17.0417 80.25 17.125C79.9375 17.0833 79.6146 17.1146 79.2812 17.2188C78.9688 17.3229 78.6667 17.4375 78.375 17.5625C78.0417 17.7083 77.7292 17.8854 77.4375 18.0938C77.25 18.2188 77.0312 18.4062 76.7812 18.6562C76.5521 18.9062 76.2188 19.1458 75.7812 19.375C75.3438 19.6042 74.7604 19.8021 74.0312 19.9688C73.3229 20.1146 72.4062 20.1667 71.2812 20.125C69.9271 20.0833 68.7917 19.8438 67.875 19.4062C66.9583 18.9479 66.2188 18.3958 65.6562 17.75C65.0938 17.0833 64.6875 16.3646 64.4375 15.5938C64.1875 14.8229 64.0521 14.1042 64.0312 13.4375C64.0104 12.7708 64.2083 12.0729 64.625 11.3438C65.0417 10.6146 65.625 9.94792 66.375 9.34375C67.1458 8.73958 68.0729 8.25 69.1562 7.875C70.2396 7.47917 71.4271 7.28125 72.7188 7.28125C73.4688 7.28125 74.1562 7.375 74.7812 7.5625C75.4271 7.72917 76.0104 7.95833 76.5312 8.25C77.0729 8.54167 77.5417 8.875 77.9375 9.25C78.3333 9.60417 78.6667 9.96875 78.9375 10.3438C79.2083 10.7396 79.4375 11.1562 79.625 11.5938C79.7917 11.9688 79.9271 12.3958 80.0312 12.875C80.1354 13.3542 80.1667 13.8438 80.125 14.3438C78.5417 14.3854 77.2604 14.4167 76.2812 14.4375C75.3229 14.4583 74.5729 14.4688 74.0312 14.4688H72.625H71.5625C71.1875 14.4688 70.6979 14.4792 70.0938 14.5C69.4896 14.5208 68.75 14.5521 67.875 14.5938C67.9792 15.4271 68.2396 16.0729 68.6562 16.5312C69.0938 16.9688 69.5521 17.3021 70.0312 17.5312C70.5729 17.7812 71.1667 17.9271 71.8125 17.9688ZM69 12.3438C69.6667 12.3854 70.2188 12.4167 70.6562 12.4375C71.1146 12.4583 71.4896 12.4792 71.7812 12.5C72.0938 12.5208 72.3438 12.5312 72.5312 12.5312H73.3125C73.8333 12.5312 74.8021 12.5 76.2188 12.4375C76.1562 11.5208 75.9583 10.8229 75.625 10.3438C75.3125 9.86458 74.9792 9.51042 74.625 9.28125C74.2083 9.03125 73.75 8.88542 73.25 8.84375C71.8958 8.86458 70.8854 9.14583 70.2188 9.6875C69.5729 10.2292 69.1667 11.1146 69 12.3438ZM95.1562 5.15625C94.9688 5.61458 94.8021 6.03125 94.6562 6.40625C94.5312 6.78125 94.4167 7.11458 94.3125 7.40625C94.2083 7.73958 94.1146 8.03125 94.0312 8.28125C93.9479 8.57292 93.8542 8.90625 93.75 9.28125C93.6458 9.61458 93.5104 10.0312 93.3438 10.5312C93.1979 11.0104 93.0208 11.5833 92.8125 12.25C92.6458 11.25 92.3438 10.4583 91.9062 9.875C91.4688 9.27083 91.0208 8.80208 90.5625 8.46875C90.0208 8.09375 89.4375 7.82292 88.8125 7.65625C87.6875 7.46875 86.875 7.48958 86.375 7.71875C85.875 7.94792 85.5417 8.23958 85.375 8.59375C85.2917 8.73958 85.1979 8.92708 85.0938 9.15625C85.0104 9.36458 84.9375 9.58333 84.875 9.8125C84.8333 10.0417 84.8229 10.2708 84.8438 10.5C84.8646 10.7292 84.9583 10.9167 85.125 11.0625C85.2292 11.1667 85.5 11.3125 85.9375 11.5C86.375 11.6667 86.8958 11.8646 87.5 12.0938C88.125 12.3021 88.7812 12.5312 89.4688 12.7812C90.1771 13.0312 90.8438 13.2812 91.4688 13.5312C92.0938 13.7812 92.6354 14.0312 93.0938 14.2812C93.5521 14.5312 93.8542 14.7604 94 14.9688C94.125 15.1771 94.2604 15.4583 94.4062 15.8125C94.5729 16.1458 94.6875 16.5208 94.75 16.9375C94.8333 17.3333 94.8542 17.75 94.8125 18.1875C94.7917 18.6042 94.6771 19.0208 94.4688 19.4375C94.2604 19.8542 93.9271 20.2396 93.4688 20.5938C93.0312 20.9479 92.4375 21.2396 91.6875 21.4688C90.8125 21.7396 89.9688 21.8125 89.1562 21.6875C88.3438 21.5625 87.5938 21.375 86.9062 21.125C86.2396 20.875 85.6562 20.6354 85.1562 20.4062C84.6562 20.1562 84.3021 20.0521 84.0938 20.0938C83.8646 20.1354 83.6042 20.25 83.3125 20.4375C83.0208 20.625 82.7396 20.8229 82.4688 21.0312C82.2188 21.2188 82 21.3958 81.8125 21.5625C81.625 21.7083 81.5312 21.7604 81.5312 21.7188C81.5312 21.6771 81.5625 21.5521 81.625 21.3438C81.7083 21.1354 81.7917 20.8854 81.875 20.5938C81.9792 20.2812 82.0729 19.9479 82.1562 19.5938C82.2604 19.2188 82.3333 18.8646 82.375 18.5312C82.4167 18.2604 82.4688 17.9271 82.5312 17.5312C82.5729 17.1771 82.625 16.75 82.6875 16.25C82.7708 15.7292 82.8646 15.1042 82.9688 14.375C83.0729 14.9167 83.2188 15.3854 83.4062 15.7812C83.6146 16.1771 83.8125 16.5208 84 16.8125C84.2292 17.1458 84.4479 17.4271 84.6562 17.6562C84.9688 17.9479 85.3333 18.2188 85.75 18.4688C86.1875 18.7188 86.625 18.9375 87.0625 19.125C87.5 19.2917 87.9167 19.3958 88.3125 19.4375C88.7083 19.4792 89.0417 19.4375 89.3125 19.3125C89.5833 19.1875 89.8125 18.9583 90 18.625C90.2083 18.2917 90.3542 17.9271 90.4375 17.5312C90.5208 17.1354 90.5521 16.7604 90.5312 16.4062C90.5104 16.0312 90.4167 15.7292 90.25 15.5C90.125 15.3542 89.8333 15.1667 89.375 14.9375C88.9375 14.7083 88.4062 14.4583 87.7812 14.1875C87.1771 13.9167 86.5312 13.6354 85.8438 13.3438C85.1771 13.0521 84.5417 12.7604 83.9375 12.4688C83.3542 12.1562 82.8646 11.8646 82.4688 11.5938C82.0938 11.3021 81.8854 11.0417 81.8438 10.8125C81.8021 10.4792 81.7708 10.1146 81.75 9.71875C81.7292 9.30208 81.75 8.89583 81.8125 8.5C81.8958 8.08333 82.0417 7.6875 82.25 7.3125C82.4792 6.9375 82.8125 6.625 83.25 6.375C83.5417 6.20833 83.9271 6.08333 84.4062 6C84.8854 5.91667 85.4167 5.875 86 5.875C86.5833 5.85417 87.1875 5.875 87.8125 5.9375C88.4375 5.97917 89.0312 6.04167 89.5938 6.125C90.1771 6.1875 90.6979 6.27083 91.1562 6.375C91.6354 6.47917 92 6.57292 92.25 6.65625C92.5417 6.76042 92.8542 6.77083 93.1875 6.6875C93.4792 6.625 93.7917 6.48958 94.125 6.28125C94.4583 6.07292 94.8021 5.69792 95.1562 5.15625Z" fill="url(#paint0_radial_14_443)"/>
<defs>
<radialGradient id="paint0_radial_14_443" cx="0" cy="0" r="1" gradientUnits="userSpaceOnUse" gradientTransform="translate(49 14.8024) rotate(-162.327) scale(351.215 77.2112)">
<stop stop-color="#EFEEFE"/>
<stop offset="0.435" stop-color="#321069" stop-opacity="0.4"/>
<stop offset="1" stop-color="#101869"/>
</radialGradient>
</defs>
</svg>
