<svg width="73" height="16" viewBox="0 0 73 16" fill="none" xmlns="http://www.w3.org/2000/svg">
<path d="M4.40341 15L0.426136 0.454545H2.21591L5.25568 12.3011H5.39773L8.49432 0.454545H10.483L13.5795 12.3011H13.7216L16.7614 0.454545H18.5511L14.5739 15H12.7557L9.54545 3.40909H9.43182L6.22159 15H4.40341ZM20.5185 15V4.09091H22.1946V15H20.5185ZM21.3707 2.27273C21.044 2.27273 20.7623 2.16146 20.5256 1.93892C20.2936 1.71638 20.1776 1.44886 20.1776 1.13636C20.1776 0.823864 20.2936 0.556345 20.5256 0.333806C20.7623 0.111269 21.044 0 21.3707 0C21.6974 0 21.9768 0.111269 22.2088 0.333806C22.4455 0.556345 22.5639 0.823864 22.5639 1.13636C22.5639 1.44886 22.4455 1.71638 22.2088 1.93892C21.9768 2.16146 21.6974 2.27273 21.3707 2.27273ZM32.9918 6.53409L31.4862 6.96023C31.3915 6.70928 31.2518 6.46544 31.0671 6.22869C30.8872 5.98722 30.641 5.78835 30.3285 5.6321C30.016 5.47585 29.6159 5.39773 29.1282 5.39773C28.4606 5.39773 27.9042 5.55161 27.4592 5.85938C27.0188 6.16241 26.7987 6.5483 26.7987 7.01705C26.7987 7.43371 26.9502 7.76278 27.2532 8.00426C27.5562 8.24574 28.0297 8.44697 28.6737 8.60795L30.293 9.00568C31.2683 9.24242 31.9951 9.60464 32.4734 10.0923C32.9516 10.5753 33.1907 11.1979 33.1907 11.9602C33.1907 12.5852 33.0108 13.1439 32.6509 13.6364C32.2958 14.1288 31.7987 14.517 31.1594 14.8011C30.5202 15.0852 29.7769 15.2273 28.9293 15.2273C27.8166 15.2273 26.8957 14.9858 26.1665 14.5028C25.4374 14.0199 24.9757 13.3144 24.7816 12.3864L26.3725 11.9886C26.524 12.5758 26.8105 13.0161 27.2319 13.3097C27.658 13.6032 28.2144 13.75 28.9009 13.75C29.6822 13.75 30.3024 13.5843 30.7617 13.2528C31.2257 12.9167 31.4577 12.5142 31.4577 12.0455C31.4577 11.6667 31.3252 11.3494 31.06 11.0938C30.7949 10.8333 30.3877 10.6392 29.8384 10.5114L28.0202 10.0852C27.0212 9.84848 26.2873 9.48153 25.8185 8.98438C25.3545 8.48248 25.1225 7.85511 25.1225 7.10227C25.1225 6.48674 25.2953 5.94223 25.641 5.46875C25.9914 4.99527 26.4672 4.62358 27.0685 4.35369C27.6746 4.08381 28.3612 3.94886 29.1282 3.94886C30.2077 3.94886 31.0553 4.18561 31.6708 4.65909C32.2911 5.13258 32.7314 5.75758 32.9918 6.53409ZM37.3899 8.4375V15H35.7138V0.454545H37.3899V5.79545H37.532C37.7876 5.23201 38.1712 4.78456 38.6825 4.45312C39.1986 4.11695 39.8852 3.94886 40.7422 3.94886C41.4856 3.94886 42.1366 4.09801 42.6953 4.39631C43.254 4.68987 43.6873 5.14205 43.995 5.75284C44.3075 6.3589 44.4638 7.13068 44.4638 8.06818V15H42.7876V8.18182C42.7876 7.31534 42.5627 6.64536 42.1129 6.17188C41.6679 5.69366 41.05 5.45455 40.2592 5.45455C39.71 5.45455 39.2176 5.57055 38.782 5.80256C38.3511 6.03456 38.0102 6.37311 37.7592 6.81818C37.513 7.26326 37.3899 7.80303 37.3899 8.4375ZM49.2063 0.454545V15H47.5302V0.454545H49.2063ZM52.2763 15V4.09091H53.9524V15H52.2763ZM53.1286 2.27273C52.8018 2.27273 52.5201 2.16146 52.2834 1.93892C52.0514 1.71638 51.9354 1.44886 51.9354 1.13636C51.9354 0.823864 52.0514 0.556345 52.2834 0.333806C52.5201 0.111269 52.8018 0 53.1286 0C53.4553 0 53.7346 0.111269 53.9666 0.333806C54.2034 0.556345 54.3217 0.823864 54.3217 1.13636C54.3217 1.44886 54.2034 1.71638 53.9666 1.93892C53.7346 2.16146 53.4553 2.27273 53.1286 2.27273ZM64.7496 6.53409L63.244 6.96023C63.1493 6.70928 63.0096 6.46544 62.8249 6.22869C62.645 5.98722 62.3988 5.78835 62.0863 5.6321C61.7738 5.47585 61.3737 5.39773 60.886 5.39773C60.2184 5.39773 59.6621 5.55161 59.217 5.85938C58.7766 6.16241 58.5565 6.5483 58.5565 7.01705C58.5565 7.43371 58.708 7.76278 59.011 8.00426C59.314 8.24574 59.7875 8.44697 60.4315 8.60795L62.0508 9.00568C63.0262 9.24242 63.753 9.60464 64.2312 10.0923C64.7094 10.5753 64.9485 11.1979 64.9485 11.9602C64.9485 12.5852 64.7686 13.1439 64.4087 13.6364C64.0536 14.1288 63.5565 14.517 62.9173 14.8011C62.2781 15.0852 61.5347 15.2273 60.6871 15.2273C59.5745 15.2273 58.6535 14.9858 57.9244 14.5028C57.1952 14.0199 56.7335 13.3144 56.5394 12.3864L58.1303 11.9886C58.2818 12.5758 58.5683 13.0161 58.9897 13.3097C59.4158 13.6032 59.9722 13.75 60.6587 13.75C61.44 13.75 62.0603 13.5843 62.5195 13.2528C62.9835 12.9167 63.2156 12.5142 63.2156 12.0455C63.2156 11.6667 63.083 11.3494 62.8178 11.0938C62.5527 10.8333 62.1455 10.6392 61.5962 10.5114L59.7781 10.0852C58.779 9.84848 58.0451 9.48153 57.5763 8.98438C57.1123 8.48248 56.8803 7.85511 56.8803 7.10227C56.8803 6.48674 57.0531 5.94223 57.3988 5.46875C57.7492 4.99527 58.225 4.62358 58.8263 4.35369C59.4324 4.08381 60.119 3.94886 60.886 3.94886C61.9656 3.94886 62.8131 4.18561 63.4286 4.65909C64.0489 5.13258 64.4892 5.75758 64.7496 6.53409ZM72.2159 4.09091V5.51136H66.5625V4.09091H72.2159ZM68.2102 1.47727H69.8864V11.875C69.8864 12.3485 69.955 12.7036 70.0923 12.9403C70.2344 13.1723 70.4143 13.3286 70.6321 13.4091C70.8546 13.4848 71.089 13.5227 71.3352 13.5227C71.5199 13.5227 71.6714 13.5133 71.7898 13.4943C71.9081 13.4706 72.0028 13.4517 72.0739 13.4375L72.4148 14.9432C72.3011 14.9858 72.1425 15.0284 71.9389 15.071C71.7353 15.1184 71.4773 15.142 71.1648 15.142C70.6913 15.142 70.2273 15.0402 69.7727 14.8366C69.3229 14.633 68.9489 14.3229 68.6506 13.9062C68.357 13.4896 68.2102 12.964 68.2102 12.3295V1.47727Z" fill="white"/>
</svg>
